<svg id="background" xmlns="http://www.w3.org/2000/svg" viewBox="0 0 85.84 183.86" width="85.84" height="130.86">
  <title>2016_VSTAR_Deck_9</title>
  <path d="M422,429.34c12.27,0,21.05-1.3,23.53-2.09,3.52-9.61,4.84-18.46,6.09-26.46h12.66s.14-120.07.14-125.25-3.94-29.06-42.51-29.06-42.33,23.89-42.33,29.06.14,125.25.14,125.25h12.66c1.25,8,2.58,16.86,6.09,26.46C401.38,428,409.73,429.34,422,429.34Z" transform="translate(-379.08 -245.98)" style="fill: #f3f4f5"/>
  <path d="M393.18,380.16c-.6-34.62,9.31-77.55,18.22-88.85,5.11-7.33,10.6-7.15,10.6-7.15s5.5-.17,10.6,7.15c8.55,10.84,17.43,51.15,18.39,88.85Z" transform="translate(-379.08 -245.98)" style="fill: #f3f4f5"/>
  <path d="M392.38,400.79c1.25,8,2.58,16.86,6.09,26.46,2.91.79,11.26,2.09,23.53,2.09s21.05-1.3,23.53-2.09c3.52-9.61,4.84-18.46,6.09-26.46Z" transform="translate(-379.08 -245.98)" style="fill: #f3f4f5"/>
  <polygon points="59.65 174.85 59.73 134.32 26.45 134.34 26.37 174.85 59.65 174.85" style="fill: #f3f4f5"/>
  <rect x="34.9" y="168.82" width="7.97" height="6.09" style="fill: #fff"/>
  <rect x="37.81" y="168.82" width="2.34" height="1.5" style="fill: none"/>
  <rect x="42.87" y="168.82" width="7.97" height="6.09" style="fill: #fff"/>
  <rect x="45.59" y="168.82" width="2.34" height="1.5" style="fill: none"/>
  <polygon points="46.94 151.53 38.97 151.51 39 149.13 34.81 149.13 34.81 144.2 39 144.2 38.97 141.75 46.94 141.75 46.91 144.2 51.04 144.2 51.04 149.13 46.91 149.13 46.94 151.53" style="fill: #fff"/>
  <rect x="14.14" y="132.06" width="10.84" height="13.57" style="fill: #fff"/>
  <rect x="61.81" y="134.15" width="10.08" height="9.81" style="fill: #fff"/>
  <polyline points="13.3 154.81 26.4 154.81 26.37 174.85 59.65 174.85 59.68 154.81 72.54 154.81" style="fill: none;stroke: #cccccb;stroke-width: 0.5px"/>
  <rect x="34.9" y="168.82" width="7.97" height="6.09" style="fill: none;stroke: #cccccb;stroke-width: 0.5px"/>
  <rect x="37.81" y="168.81" width="2.34" height="1.51" style="fill: none;stroke: #cccccb;stroke-width: 0.25px"/>
  <rect x="42.87" y="168.82" width="7.97" height="6.09" style="fill: none;stroke: #cccccb;stroke-width: 0.5px"/>
  <rect x="45.59" y="168.81" width="2.34" height="1.51" style="fill: none;stroke: #cccccb;stroke-width: 0.25px"/>
  <g>
    <polyline points="38.97 141.75 38.97 151.51 46.94 151.53 46.94 141.75" style="fill: none;stroke: #cccccb;stroke-width: 0.5px"/>
    <line x1="34.82" y1="145.43" x2="51.06" y2="145.43" style="fill: none;stroke: #cccccb;stroke-width: 0.25px"/>
    <line x1="34.82" y1="146.67" x2="51.06" y2="146.67" style="fill: none;stroke: #cccccb;stroke-width: 0.25px"/>
    <line x1="34.82" y1="147.88" x2="51.03" y2="147.88" style="fill: none;stroke: #cccccb;stroke-width: 0.25px"/>
    <line x1="38.98" y1="143" x2="46.93" y2="143" style="fill: none;stroke: #cccccb;stroke-width: 0.25px"/>
    <line x1="38.98" y1="144.21" x2="46.93" y2="144.21" style="fill: none;stroke: #cccccb;stroke-width: 0.25px"/>
    <line x1="38.96" y1="149.13" x2="46.95" y2="149.13" style="fill: none;stroke: #cccccb;stroke-width: 0.25px"/>
    <line x1="38.96" y1="150.33" x2="46.93" y2="150.33" style="fill: none;stroke: #cccccb;stroke-width: 0.25px"/>
    <polyline points="38.95 149.13 34.81 149.13 34.81 144.2 38.95 144.2" style="fill: none;stroke: #cccccb;stroke-width: 0.5px"/>
    <polyline points="46.91 149.13 51.04 149.13 51.04 144.2 46.91 144.2" style="fill: none;stroke: #cccccb;stroke-width: 0.5px"/>
  </g>
  <polyline points="34.86 151.66 34.86 117.97 51 117.97 51 151.66" style="fill: none;stroke: #cccccb;stroke-miterlimit: 10;stroke-width: 0.5px"/>
  <line x1="24.8" y1="134.16" x2="61.81" y2="134.16" style="fill: none;stroke: #cccccb;stroke-miterlimit: 10;stroke-width: 0.5px"/>
  <rect x="13.9" y="132.31" width="10.83" height="13.4" style="fill: none;stroke: #cccccb;stroke-width: 0.5px"/>
  <path d="M422,429.34c12.27,0,21.05-1.3,23.53-2.09,3.52-9.61,4.84-18.46,6.09-26.46h12.66s.14-120.07.14-125.25-3.94-29.06-42.51-29.06-42.33,23.89-42.33,29.06.14,125.25.14,125.25h12.66c1.25,8,2.58,16.86,6.09,26.46C401.38,428,409.73,429.34,422,429.34Z" transform="translate(-379.08 -245.98)" style="fill: none;stroke: #989897"/>
  <path d="M450.91,380.17c-1.37-40.5-10-78.34-18.31-88.86-5.11-7.33-10.6-7.15-10.6-7.15s-5.5-.17-10.6,7.15C403,302,393.63,341,393.17,378" transform="translate(-379.08 -245.98)" style="fill: none;stroke: #cccccb;stroke-miterlimit: 10;stroke-width: 0.75px"/>
  <rect x="61.88" y="134.1" width="10.09" height="9.93" style="fill: none;stroke: #cccccb;stroke-miterlimit: 10;stroke-width: 0.5px"/>
  <text transform="translate(41.57 32.41) rotate(-90)" style="font-size: 7px;fill: #cccccb;font-family: Arial-BoldMT, Arial;font-weight: 700">Sports<tspan x="2.72" y="7.5">Deck</tspan></text>
  <text transform="translate(42.99 167.58) rotate(-90) scale(1 1.16)" style="font-size: 5px;fill: #cccccb;font-family: Arial-BoldMT, Arial;font-weight: 700">Lifts</text>
  <g>
    <path d="M396.56,387.2a.7.7,0,0,1,0,.08.68.68,0,0,1-.75.6.68.68,0,0,1-.35-1.21.67.67,0,0,1,.5-.14A.68.68,0,0,1,396.56,387.2Z" transform="translate(-379.08 -245.98)" style="fill: #cccccb"/>
    <path d="M400.81,385.76a2,2,0,0,1,1.55,2,2,2,0,0,1-2,2,2,2,0,0,1-1.83-1.18h.7a1.43,1.43,0,0,0,2.57-.87,1.35,1.35,0,0,0-1.36-1.39h-.47Z" transform="translate(-379.08 -245.98)" style="fill: #cccccb"/>
    <path d="M401.07,385.18c0,.12-.11.2-.22.27l-1.44.91V388a.4.4,0,0,1-.07.24.44.44,0,0,1-.38.22h-.07l-1.24-.16.19.4.91.54a.34.34,0,0,1,.16.3v0a.36.36,0,0,1,0,.12.33.33,0,0,1-.21.16.32.32,0,0,1-.25,0l-1-.57a.33.33,0,0,1-.12-.11.18.18,0,0,1-.06-.07l-.53-1.09a.26.26,0,0,1,0-.1.55.55,0,0,1,0-.3.6.6,0,0,1,.66-.53l1.22.19v-1a.43.43,0,0,1,.27-.4l1.44-.92-.1-.18a.32.32,0,0,1,.11-.42.31.31,0,0,1,.42.11l.31.56A.32.32,0,0,1,401.07,385.18Z" transform="translate(-379.08 -245.98)" style="fill: #cccccb"/>
  </g>
  <g>
    <path d="M394.88,380.36a.64.64,0,1,1-.64.64.64.64,0,0,1,.64-.64" transform="translate(-379.08 -245.98)" style="fill: #cccccb"/>
    <rect x="21.11" y="134.3" width="2.33" height="1.46" style="fill: #cccccb"/>
    <path d="M399.58,379.35a.24.24,0,0,1,.29.25v2.78a.25.25,0,0,1-.29.25l-3.39-.53a.36.36,0,0,1-.29-.34v-1.53a.36.36,0,0,1,.29-.34Z" transform="translate(-379.08 -245.98)" style="fill: #cccccb"/>
  </g>
  <g>
    <path d="M442.55,384a.64.64,0,1,1-.64.64.64.64,0,0,1,.64-.64" transform="translate(-379.08 -245.98)" style="fill: #cccccb"/>
    <path d="M443.59,383.9v1.56a.59.59,0,0,0,.59.59h2.29a.3.3,0,0,0,.3-.29v-2.15a.3.3,0,0,0-.3-.3h-2.29a.59.59,0,0,0-.59.59" transform="translate(-379.08 -245.98)" style="fill: #cccccb"/>
    <rect x="67.97" y="137.96" width="3.14" height="1.46" style="fill: #cccccb"/>
  </g>
</svg>
