<svg id="background" xmlns="http://www.w3.org/2000/svg" viewBox="0 0 84.39 630.94" width="84.39" height="630.94">
  <title>2016_VSTAR_Deck_1</title>
  <path d="M441.64,193.66c.09,60-.09,502.4-.09,502.4,0,8.09-8.17,11.82-10.35,12.79-5.29,2.36-24.27,3-31.23,3s-25.94-.65-31.23-3c-2.17-1-10.35-4.7-10.35-12.79,0,0-.18-442.43-.1-502.4" transform="translate(-358.14 -81.8)" style="fill: #f2f1e8"/>
  <path d="M358.67,194c.09-65.51,21-88.72,38.94-110.34a3.36,3.36,0,0,1,5.46,0C421,105.31,441.91,128.53,442,194" transform="translate(-358.14 -81.8)" style="fill: #f3f4f5"/>
  <path d="M441.85,603.73H413v43.2H387.61l0-43.2H358.92l-.16,92.7c0,8.09,8.17,11.82,10.35,12.79,5.29,2.36,24.27,3,31.23,3s25.94-.65,31.23-3c2.17-1,10.35-4.7,10.35-12.79Z" transform="translate(-358.14 -81.8)" style="fill: #f3f4f5"/>
  <path d="M441.85,503.41s0-313.25,0-315.27c0-10.29-5.18-14.61-11.71-16.18-5.44-1.31-18.34-2.1-30.66-2.24-12.31.14-24.55.93-30,2.24-6.53,1.57-10.84,7.22-10.84,17.51,0,2,.12,313.94.12,313.94Z" transform="translate(-358.14 -81.8)" style="fill: #f3f4f5"/>
  <polygon points="66.63 210.6 58.12 210.6 58.12 235.41 27.08 235.41 27.08 210.6 18.36 210.6 18.36 200.64 66.63 200.64 66.63 210.6" style="fill: none;stroke: #cccccb;stroke-width: 0.75px"/>
  <polygon points="0.78 421.45 0.78 521.94 29.49 521.94 29.46 565.14 54.86 565.14 54.86 521.94 83.81 521.94 83.72 421.45 50.16 421.45 50.16 453.64 34.56 453.67 34.41 421.45 0.78 421.45" style="fill: #f3f4f5"/>
  <rect x="0.7" y="367.98" width="10.69" height="17.66" style="fill: #fff"/>
  <rect x="33.98" y="404.58" width="7.97" height="6.09" style="fill: #fff"/>
  <rect x="36.79" y="404.58" width="2.25" height="1.31" style="fill: none"/>
  <rect x="41.94" y="404.58" width="7.97" height="6.09" style="fill: #fff"/>
  <rect x="44.66" y="404.58" width="2.25" height="1.31" style="fill: none"/>
  <path d="M396.05,458.31a6.4,6.4,0,0,0-3.8,1.38v7.73h8v-7.78A8.52,8.52,0,0,0,396.05,458.31Z" transform="translate(-358.14 -81.8)" style="fill: #fff"/>
  <path d="M404,458.31a6.39,6.39,0,0,0-3.79,1.38v7.73h8v-7.78A8.54,8.54,0,0,0,404,458.31Z" transform="translate(-358.14 -81.8)" style="fill: #fff"/>
  <rect x="36.79" y="384.28" width="2.25" height="1.31" style="fill: none"/>
  <rect x="44.66" y="384.28" width="2.25" height="1.31" style="fill: none"/>
  <rect x="34.08" y="229.3" width="7.97" height="6.09" style="fill: #fff"/>
  <rect x="36.99" y="229.3" width="2.34" height="1.5" style="fill: none"/>
  <rect x="42.05" y="229.3" width="7.97" height="6.09" style="fill: #fff"/>
  <rect x="44.77" y="229.3" width="2.34" height="1.5" style="fill: none"/>
  <polygon points="38.49 347.18 38.49 338.72 32.86 338.72 32.86 332.11 49.82 332.11 49.82 338.71 45.04 338.71 45.04 347.18 38.49 347.18" style="fill: #fff"/>
  <rect x="34.42" y="435.4" width="15.6" height="49.19" style="fill: #f3f4f5"/>
  <rect x="34.32" y="183.99" width="15.6" height="16.58" style="fill: #fff;stroke: #cccbca;stroke-width: 0.35000000000000003px"/>
  <rect x="34.32" y="235.57" width="15.6" height="27.24" style="fill: #bcbec0"/>
  <polygon points="46.08 422.19 38.42 422.2 38.45 424.59 34.42 424.59 34.42 429.52 38.45 429.52 38.42 431.97 46.08 431.97 46.05 429.52 50.02 429.52 50.02 424.59 46.05 424.59 46.08 422.19" style="fill: #fff"/>
  <polygon points="45.96 213.56 38.3 213.55 38.33 211.17 34.31 211.17 34.31 206.24 38.33 206.24 38.3 203.76 45.96 203.76 45.93 206.24 49.91 206.24 49.91 211.17 45.93 211.17 45.96 213.56" style="fill: #fff"/>
  <polygon points="18.16 200.62 18.16 210.51 27.08 210.6 27.08 235.41 50.08 235.76 50.08 332.11 32.86 332.11 32.96 327.56 0.54 327.56 0.54 200.62 18.16 200.62" style="fill: #f3f4f5"/>
  <rect x="0.7" y="367.98" width="10.69" height="17.66" style="fill: none;stroke: #cccccb;stroke-width: 0.5px"/>
  <rect x="65" y="377.54" width="15.51" height="4.09" style="fill: #fff;stroke: #cccccb;stroke-width: 0.5px"/>
  <polyline points="34.3 213.71 34.3 183.9 49.92 183.9 49.92 213.71" style="fill: none;stroke: #cccccb;stroke-width: 0.75px"/>
  <rect x="34.08" y="229.3" width="7.97" height="6.09" style="fill: none;stroke: #cccccb;stroke-width: 0.75px"/>
  <rect x="36.99" y="229.29" width="2.34" height="1.51" style="fill: none;stroke: #cccccb;stroke-width: 0.25px"/>
  <rect x="42.05" y="229.3" width="7.97" height="6.09" style="fill: none;stroke: #cccccb;stroke-width: 0.75px"/>
  <rect x="44.77" y="229.29" width="2.34" height="1.51" style="fill: none;stroke: #cccccb;stroke-width: 0.25px"/>
  <rect x="40.15" y="333.38" width="3.9" height="4.08" style="fill: none;stroke: #cccccb;stroke-width: 0.25px"/>
  <line x1="33.94" y1="338.68" x2="33.94" y2="332.14" style="fill: none;stroke: #cccccb;stroke-width: 0.25px"/>
  <line x1="34.89" y1="338.68" x2="34.89" y2="332.14" style="fill: none;stroke: #cccccb;stroke-width: 0.25px"/>
  <line x1="35.95" y1="338.68" x2="35.95" y2="332.14" style="fill: none;stroke: #cccccb;stroke-width: 0.25px"/>
  <line x1="36.86" y1="332.14" x2="36.86" y2="338.68" style="fill: none;stroke: #cccccb;stroke-width: 0.25px"/>
  <line x1="38.49" y1="343.3" x2="45.04" y2="343.3" style="fill: none;stroke: #cccccb;stroke-width: 0.25px"/>
  <line x1="38.49" y1="344.25" x2="45.04" y2="344.25" style="fill: none;stroke: #cccccb;stroke-width: 0.25px"/>
  <line x1="38.49" y1="345.3" x2="45.04" y2="345.3" style="fill: none;stroke: #cccccb;stroke-width: 0.25px"/>
  <line x1="45.04" y1="346.22" x2="38.49" y2="346.22" style="fill: none;stroke: #cccccb;stroke-width: 0.25px"/>
  <line x1="46.03" y1="338.68" x2="46.03" y2="332.14" style="fill: none;stroke: #cccccb;stroke-width: 0.25px"/>
  <line x1="46.98" y1="338.68" x2="46.98" y2="332.14" style="fill: none;stroke: #cccccb;stroke-width: 0.25px"/>
  <line x1="48.03" y1="338.68" x2="48.03" y2="332.14" style="fill: none;stroke: #cccccb;stroke-width: 0.25px"/>
  <line x1="48.95" y1="332.14" x2="48.95" y2="338.68" style="fill: none;stroke: #cccccb;stroke-width: 0.25px"/>
  <line x1="1.22" y1="421.45" x2="34.41" y2="421.45" style="fill: none;stroke: #ccc;stroke-width: 0.5px"/>
  <line x1="50.04" y1="421.45" x2="83.67" y2="421.45" style="fill: none;stroke: #ccc;stroke-width: 0.5px"/>
  <rect x="33.98" y="404.58" width="7.97" height="6.09" style="fill: none;stroke: #cccccb;stroke-width: 0.5px"/>
  <rect x="36.79" y="404.58" width="2.25" height="1.31" style="fill: none;stroke: #cccccb;stroke-width: 0.25px"/>
  <rect x="41.94" y="404.58" width="7.97" height="6.09" style="fill: none;stroke: #cccccb;stroke-width: 0.5px"/>
  <rect x="44.66" y="404.58" width="2.25" height="1.31" style="fill: none;stroke: #cccccb;stroke-width: 0.25px"/>
  <g>
    <polyline points="38.3 203.78 38.3 213.55 45.96 213.56 45.96 203.78" style="fill: none;stroke: #cccccb;stroke-width: 0.5px"/>
    <line x1="34.32" y1="207.47" x2="49.92" y2="207.47" style="fill: none;stroke: #cccccb;stroke-width: 0.5px"/>
    <line x1="34.32" y1="208.71" x2="49.92" y2="208.71" style="fill: none;stroke: #cccccb;stroke-width: 0.5px"/>
    <line x1="34.31" y1="209.92" x2="49.89" y2="209.92" style="fill: none;stroke: #cccccb;stroke-width: 0.5px"/>
    <line x1="38.31" y1="205.04" x2="45.95" y2="205.04" style="fill: none;stroke: #cccccb;stroke-width: 0.5px"/>
    <line x1="38.31" y1="206.25" x2="45.95" y2="206.25" style="fill: none;stroke: #cccccb;stroke-width: 0.5px"/>
    <line x1="38.3" y1="211.17" x2="45.97" y2="211.17" style="fill: none;stroke: #cccccb;stroke-width: 0.5px"/>
    <line x1="38.3" y1="212.38" x2="45.95" y2="212.38" style="fill: none;stroke: #cccccb;stroke-width: 0.5px"/>
    <polyline points="38.28 211.17 34.31 211.17 34.31 206.24 38.28 206.24" style="fill: none;stroke: #cccccb;stroke-width: 0.5px"/>
    <polyline points="45.93 211.17 49.91 211.17 49.91 206.24 45.93 206.24" style="fill: none;stroke: #cccccb;stroke-width: 0.5px"/>
  </g>
  <polyline points="50.04 421.45 50.04 484.73 34.42 484.73 34.42 421.45" style="fill: none;stroke: #cccccb;stroke-miterlimit: 10;stroke-width: 0.75px"/>
  <path d="M396.05,458.31a6.4,6.4,0,0,0-3.8,1.38v7.73h8v-7.78A8.52,8.52,0,0,0,396.05,458.31Z" transform="translate(-358.14 -81.8)" style="fill: none;stroke: #cccccb;stroke-width: 0.5px"/>
  <path d="M404,458.31a6.39,6.39,0,0,0-3.79,1.38v7.73h8v-7.78A8.54,8.54,0,0,0,404,458.31Z" transform="translate(-358.14 -81.8)" style="fill: none;stroke: #cccccb;stroke-width: 0.5px"/>
  <rect x="36.79" y="384.28" width="2.25" height="1.31" style="fill: none;stroke: #cccccb;stroke-width: 0.25px"/>
  <rect x="44.66" y="384.28" width="2.25" height="1.31" style="fill: none;stroke: #cccccb;stroke-width: 0.25px"/>
  <polygon points="38.49 347.18 38.49 338.72 32.86 338.72 32.86 332.11 49.98 332.11 49.98 338.71 45.04 338.71 45.04 347.18 38.49 347.18" style="fill: none;stroke: #cccccb;stroke-width: 0.75px"/>
  <line x1="34.42" y1="435.4" x2="50.02" y2="435.4" style="fill: none;stroke: #cccccb;stroke-width: 0.5px"/>
  <g>
    <polyline points="38.42 431.97 38.42 422.2 46.08 422.19 46.08 431.97" style="fill: none;stroke: #cccccb;stroke-width: 0.5px"/>
    <line x1="34.43" y1="428.29" x2="50.04" y2="428.29" style="fill: none;stroke: #cccccb;stroke-width: 0.25px"/>
    <line x1="34.43" y1="427.04" x2="50.04" y2="427.04" style="fill: none;stroke: #cccccb;stroke-width: 0.25px"/>
    <line x1="34.43" y1="425.83" x2="50.01" y2="425.83" style="fill: none;stroke: #cccccb;stroke-width: 0.25px"/>
    <line x1="38.43" y1="430.71" x2="46.07" y2="430.71" style="fill: none;stroke: #cccccb;stroke-width: 0.25px"/>
    <line x1="38.43" y1="429.5" x2="46.07" y2="429.5" style="fill: none;stroke: #cccccb;stroke-width: 0.25px"/>
    <line x1="38.42" y1="424.58" x2="46.08" y2="424.58" style="fill: none;stroke: #cccccb;stroke-width: 0.25px"/>
    <line x1="38.42" y1="423.38" x2="46.07" y2="423.38" style="fill: none;stroke: #cccccb;stroke-width: 0.25px"/>
    <polyline points="38.4 424.59 34.42 424.59 34.42 429.52 38.4 429.52" style="fill: none;stroke: #cccccb;stroke-width: 0.5px"/>
    <polyline points="46.05 424.59 50.02 424.59 50.02 429.52 46.05 429.52" style="fill: none;stroke: #cccccb;stroke-width: 0.5px"/>
  </g>
  <path d="M441.86,188c0-10.29-5.15-14.45-11.68-16-5.44-1.31-18.34-2.1-30.66-2.24-12.31.14-24.57.86-30,2.24-5.93,1.51-10.8,6.35-10.8,16.64" transform="translate(-358.14 -81.8)" style="fill: none;stroke: #989897"/>
  <line x1="0.6" y1="200.53" x2="83.85" y2="200.53" style="fill: none;stroke: #cccccb;stroke-width: 0.75px"/>
  <polyline points="0.89 447.18 26.22 447.18 26.22 421.35" style="fill: none;stroke: #ccc;stroke-width: 0.5px"/>
  <polyline points="84.22 447.18 58.89 447.18 58.89 421.35" style="fill: none;stroke: #ccc;stroke-width: 0.5px"/>
  <polyline points="0.78 521.94 29.49 521.94 29.46 565.14 54.86 565.14 54.86 521.94 83.71 521.94" style="fill: none;stroke: #ccc;stroke-width: 0.5px"/>
  <polyline points="66.63 210.6 58.12 210.6 58.12 235.41 27.08 235.41 27.08 210.6 18.36 210.6 18.36 200.64" style="fill: none;stroke: #cccccb;stroke-width: 0.75px"/>
  <line x1="49.93" y1="235.56" x2="49.93" y2="332.13" style="fill: none;stroke: #cccccb;stroke-width: 0.75px"/>
  <polyline points="83.78 338.74 66.63 338.74 66.63 200.56" style="fill: none;stroke: #cccccb;stroke-width: 0.75px"/>
  <path d="M400.33,82.3a3.63,3.63,0,0,1,2.73,1.4C421,105.31,441.91,128.53,442,194c.09,60-.09,502.4-.09,502.4,0,8.09-8.17,11.82-10.35,12.79-5.29,2.36-24.27,3-31.23,3s-25.94-.65-31.23-3c-2.17-1-10.35-4.7-10.35-12.79,0,0-.18-442.43-.09-502.4.09-65.51,21-88.72,38.94-110.34A3.6,3.6,0,0,1,400.33,82.3Z" transform="translate(-358.14 -81.8)" style="fill: none;stroke: #989897"/>
  <line x1="66.84" y1="292.8" x2="83.77" y2="292.8" style="fill: none;stroke: #cccccb;stroke-width: 0.75px"/>
  <line x1="66.88" y1="246.8" x2="83.68" y2="246.8" style="fill: none;stroke: #cccccb;stroke-width: 0.75px"/>
  <polyline points="32.86 332.11 32.86 327.64 0.54 327.64" style="fill: none;stroke: #cccccb;stroke-width: 0.75px"/>
  <text transform="translate(43.32 228.4) rotate(-90) scale(1 1.16)" style="font-size: 5px;fill: #cccccb;font-family: Arial-BoldMT, Arial;font-weight: 700">Lifts</text>
  <text transform="translate(44.09 399.6) rotate(-90) scale(1 1.16)" style="font-size: 5px;fill: #cccccb;font-family: Arial-BoldMT, Arial;font-weight: 700">Lifts</text>
  <text transform="translate(44.69 157.1) rotate(-90)" style="font-size: 7px;fill: #cccccb;font-family: Arial-BoldMT, Arial;font-weight: 700">The Spa</text>
  <g>
    <path d="M360.62,451.89a.65.65,0,1,1-.65.65.65.65,0,0,1,.65-.65" transform="translate(-358.14 -81.8)" style="fill: #cccccb"/>
    <path d="M361.7,451.77v1.58a.6.6,0,0,0,.6.6h2.31a.3.3,0,0,0,.3-.3v-2.17a.3.3,0,0,0-.3-.3H362.3a.6.6,0,0,0-.6.6" transform="translate(-358.14 -81.8)" style="fill: #cccccb"/>
    <rect x="7.05" y="370.01" width="3.17" height="1.47" style="fill: #cccccb"/>
    <path d="M360.62,457.1a.65.65,0,1,1-.65.65.65.65,0,0,1,.65-.65" transform="translate(-358.14 -81.8)" style="fill: #cccccb"/>
    <rect x="7.87" y="375.21" width="2.35" height="1.47" style="fill: #cccccb"/>
    <path d="M365.4,456.07a.25.25,0,0,1,.29.25v2.81a.25.25,0,0,1-.29.25l-3.43-.54a.36.36,0,0,1-.3-.34V457a.36.36,0,0,1,.3-.34Z" transform="translate(-358.14 -81.8)" style="fill: #cccccb"/>
  </g>
  <text transform="translate(70.98 374.33) rotate(-90)" style="font-size: 7px;fill: #cccccb;font-family: Arial-BoldMT, Arial;font-weight: 700">Viking<tspan x="0" y="7.5">Bar</tspan></text>
  <text transform="translate(21.17 376.19) rotate(-90)" style="font-size: 7px;fill: #cccccb;font-family: Arial-BoldMT, Arial;font-weight: 700">The Viking<tspan x="-3.5" y="7.5">Living Room</tspan></text>
  <text transform="translate(77.57 324.58) rotate(-90)" style="font-size: 7px;fill: #cccccb;font-family: Arial-BoldMT, Arial;font-weight: 700">Shop</text>
  <text transform="translate(77.44 280.75) rotate(-90)" style="font-size: 7px;fill: #cccccb;font-family: Arial-BoldMT, Arial;font-weight: 700">Salon</text>
  <text transform="translate(12.32 444.39) rotate(-90)" style="font-size: 6px;fill: #cccccb;font-family: Arial-BoldMT, Arial;font-weight: 700">Private<tspan x="-1.83" y="6.5">Dining 2</tspan></text>
  <text transform="translate(18.82 515.97) rotate(-90)" style="font-size: 7px;fill: #cccccb;font-family: Arial-BoldMT, Arial;font-weight: 700">The Chef’s<tspan x="8.75" y="7.5">Table</tspan></text>
  <text transform="translate(41.42 562.7) rotate(-90)" style="font-size: 7px;fill: #cccccb;font-family: Arial-BoldMT, Arial;font-weight: 700">The Kitchen<tspan x="10.89" y="7.5">Table</tspan></text>
  <text transform="translate(59.57 519.9) rotate(-90)" style="font-size: 7px;fill: #cccccb;font-family: Arial-BoldMT, Arial;font-weight: 700">Manfredi’s Italian <tspan x="0" y="7.5">Restaurant</tspan></text>
  <text transform="translate(68.27 444.14) rotate(-90)" style="font-size: 6px;fill: #cccccb;font-family: Arial-BoldMT, Arial;font-weight: 700">Private<tspan x="-1.83" y="6.5">Dining 1</tspan></text>
  <text transform="translate(73.72 236.17) rotate(-90)" style="font-size: 7px;fill: #cccccb;font-family: Arial-BoldMT, Arial;font-weight: 700">Fitness<tspan x="1.17" y="7.5">Center</tspan></text>
  <g>
    <path d="M362.49,463.47a.69.69,0,0,1,0,.08.68.68,0,0,1-.75.6.68.68,0,0,1-.35-1.21.67.67,0,0,1,.5-.14A.68.68,0,0,1,362.49,463.47Z" transform="translate(-358.14 -81.8)" style="fill: #cccccb"/>
    <path d="M366.73,462a2,2,0,0,1,1.55,2,2,2,0,0,1-2,2,2,2,0,0,1-1.83-1.18h.7a1.43,1.43,0,0,0,2.57-.87,1.35,1.35,0,0,0-1.36-1.39h-.47Z" transform="translate(-358.14 -81.8)" style="fill: #cccccb"/>
    <path d="M367,461.44c0,.12-.11.2-.22.27l-1.44.91v1.6a.4.4,0,0,1-.07.24.45.45,0,0,1-.38.22h-.07l-1.24-.16.19.4.91.54a.34.34,0,0,1,.16.3v0a.35.35,0,0,1,0,.11.33.33,0,0,1-.21.16.32.32,0,0,1-.25,0l-1-.57a.33.33,0,0,1-.12-.11.18.18,0,0,1-.06-.07l-.53-1.09a.27.27,0,0,1,0-.1.55.55,0,0,1,0-.3.6.6,0,0,1,.66-.53l1.22.19v-1a.43.43,0,0,1,.27-.4l1.44-.92-.1-.18a.32.32,0,0,1,.11-.42.31.31,0,0,1,.42.11l.31.56A.32.32,0,0,1,367,461.44Z" transform="translate(-358.14 -81.8)" style="fill: #cccccb"/>
  </g>
  <g>
    <polygon points="33.98 489.67 32.71 492.19 33.98 494.61 37.17 494.61 38.44 492.19 37.17 489.67 33.98 489.67" style="fill: #fff;stroke: #cccccb;stroke-width: 0.25px"/>
    <rect x="34.53" y="487.7" width="2.19" height="1.97" style="fill: #fff;stroke: #cccccb;stroke-width: 0.25px"/>
    <polygon points="40.07 491.01 38.31 491.9 37.33 489.94 39.08 489.06 40.07 491.01" style="fill: #fff;stroke: #cccccb;stroke-width: 0.25px"/>
    <rect x="34.53" y="494.61" width="2.19" height="1.97" style="fill: #fff;stroke: #cccccb;stroke-width: 0.25px"/>
    <polygon points="40.08 493.3 38.34 492.38 37.33 494.33 39.07 495.24 40.08 493.3" style="fill: #fff;stroke: #cccccb;stroke-width: 0.25px"/>
    <rect x="389.5" y="571.29" width="2.19" height="1.97" transform="translate(-654.61 579.95) rotate(-63.11)" style="fill: #fff;stroke: #cccccb;stroke-width: 0.25px"/>
    <rect x="389.6" y="574.51" width="1.97" height="2.19" transform="translate(-580.84 165.55) rotate(-27.68)" style="fill: #fff;stroke: #cccccb;stroke-width: 0.25px"/>
  </g>
  <g>
    <polygon points="46.41 489.67 45.14 492.19 46.41 494.61 49.6 494.61 50.87 492.19 49.6 489.67 46.41 489.67" style="fill: #fff;stroke: #cccccb;stroke-width: 0.25px"/>
    <rect x="46.97" y="487.7" width="2.19" height="1.97" style="fill: #fff;stroke: #cccccb;stroke-width: 0.25px"/>
    <polygon points="52.5 491.01 50.75 491.9 49.76 489.94 51.51 489.06 52.5 491.01" style="fill: #fff;stroke: #cccccb;stroke-width: 0.25px"/>
    <rect x="46.97" y="494.61" width="2.19" height="1.97" style="fill: #fff;stroke: #cccccb;stroke-width: 0.25px"/>
    <polygon points="52.52 493.3 50.77 492.38 49.76 494.33 51.5 495.24 52.52 493.3" style="fill: #fff;stroke: #cccccb;stroke-width: 0.25px"/>
    <rect x="401.93" y="571.29" width="2.19" height="1.97" transform="translate(-647.8 591.04) rotate(-63.11)" style="fill: #fff;stroke: #cccccb;stroke-width: 0.25px"/>
    <rect x="402.03" y="574.51" width="1.97" height="2.19" transform="translate(-579.42 171.32) rotate(-27.68)" style="fill: #fff;stroke: #cccccb;stroke-width: 0.25px"/>
  </g>
  <g>
    <polygon points="33.98 512.91 32.71 515.44 33.98 517.86 37.17 517.86 38.44 515.44 37.17 512.91 33.98 512.91" style="fill: #fff;stroke: #cccccb;stroke-width: 0.25px"/>
    <rect x="34.53" y="510.95" width="2.19" height="1.97" style="fill: #fff;stroke: #cccccb;stroke-width: 0.25px"/>
    <polygon points="40.07 514.26 38.31 515.15 37.33 513.2 39.08 512.3 40.07 514.26" style="fill: #fff;stroke: #cccccb;stroke-width: 0.25px"/>
    <rect x="34.53" y="517.86" width="2.19" height="1.97" style="fill: #fff;stroke: #cccccb;stroke-width: 0.25px"/>
    <polygon points="40.08 516.55 38.34 515.63 37.33 517.58 39.07 518.49 40.08 516.55" style="fill: #fff;stroke: #cccccb;stroke-width: 0.25px"/>
    <rect x="389.5" y="594.54" width="2.19" height="1.97" transform="translate(-675.35 592.69) rotate(-63.11)" style="fill: #fff;stroke: #cccccb;stroke-width: 0.25px"/>
    <rect x="389.6" y="597.76" width="1.97" height="2.19" transform="translate(-591.65 168.21) rotate(-27.68)" style="fill: #fff;stroke: #cccccb;stroke-width: 0.25px"/>
  </g>
  <g>
    <polygon points="46.41 512.91 45.14 515.44 46.41 517.86 49.6 517.86 50.87 515.44 49.6 512.91 46.41 512.91" style="fill: #fff;stroke: #cccccb;stroke-width: 0.25px"/>
    <rect x="46.97" y="510.95" width="2.19" height="1.97" style="fill: #fff;stroke: #cccccb;stroke-width: 0.25px"/>
    <polygon points="52.5 514.26 50.75 515.15 49.76 513.2 51.51 512.3 52.5 514.26" style="fill: #fff;stroke: #cccccb;stroke-width: 0.25px"/>
    <rect x="46.97" y="517.86" width="2.19" height="1.97" style="fill: #fff;stroke: #cccccb;stroke-width: 0.25px"/>
    <polygon points="52.52 516.55 50.77 515.63 49.76 517.58 51.5 518.49 52.52 516.55" style="fill: #fff;stroke: #cccccb;stroke-width: 0.25px"/>
    <rect x="401.93" y="594.54" width="2.19" height="1.97" transform="translate(-668.54 603.78) rotate(-63.11)" style="fill: #fff;stroke: #cccccb;stroke-width: 0.25px"/>
    <rect x="402.03" y="597.76" width="1.97" height="2.19" transform="translate(-590.22 173.98) rotate(-27.68)" style="fill: #fff;stroke: #cccccb;stroke-width: 0.25px"/>
  </g>
  <g>
    <polygon points="63.86 466.88 62.59 469.41 63.86 471.83 67.05 471.83 68.33 469.41 67.05 466.88 63.86 466.88" style="fill: #fff;stroke: #cccccb;stroke-width: 0.25px"/>
    <rect x="64.42" y="464.92" width="2.19" height="1.97" style="fill: #fff;stroke: #cccccb;stroke-width: 0.25px"/>
    <polygon points="69.95 468.23 68.2 469.12 67.21 467.17 68.96 466.27 69.95 468.23" style="fill: #fff;stroke: #cccccb;stroke-width: 0.25px"/>
    <rect x="64.42" y="471.83" width="2.19" height="1.97" style="fill: #fff;stroke: #cccccb;stroke-width: 0.25px"/>
    <rect x="425.63" y="551.84" width="2.19" height="1.97" transform="translate(-619.18 592.22) rotate(-62.33)" style="fill: #fff;stroke: #cccccb;stroke-width: 0.25px"/>
    <rect x="419.38" y="548.51" width="2.19" height="1.97" transform="translate(-617.93 594.1) rotate(-63.1)" style="fill: #fff;stroke: #cccccb;stroke-width: 0.25px"/>
    <rect x="419.49" y="551.73" width="1.97" height="2.19" transform="translate(-566.85 176.85) rotate(-27.69)" style="fill: #fff;stroke: #cccccb;stroke-width: 0.25px"/>
  </g>
  <g>
    <polygon points="63.86 451.88 62.59 454.41 63.86 456.83 67.05 456.83 68.33 454.41 67.05 451.88 63.86 451.88" style="fill: #fff;stroke: #cccccb;stroke-width: 0.25px"/>
    <rect x="64.42" y="449.92" width="2.19" height="1.97" style="fill: #fff;stroke: #cccccb;stroke-width: 0.25px"/>
    <polygon points="69.95 453.23 68.2 454.12 67.21 452.17 68.96 451.27 69.95 453.23" style="fill: #fff;stroke: #cccccb;stroke-width: 0.25px"/>
    <rect x="64.42" y="456.83" width="2.19" height="1.97" style="fill: #fff;stroke: #cccccb;stroke-width: 0.25px"/>
    <rect x="425.63" y="536.84" width="2.19" height="1.97" transform="translate(-605.9 584.18) rotate(-62.33)" style="fill: #fff;stroke: #cccccb;stroke-width: 0.25px"/>
    <rect x="419.38" y="533.51" width="2.19" height="1.97" transform="translate(-604.56 585.89) rotate(-63.1)" style="fill: #fff;stroke: #cccccb;stroke-width: 0.25px"/>
    <rect x="419.49" y="536.73" width="1.97" height="2.19" transform="translate(-559.89 175.13) rotate(-27.69)" style="fill: #fff;stroke: #cccccb;stroke-width: 0.25px"/>
  </g>
  <g>
    <polygon points="16.92 466.88 15.65 469.41 16.92 471.83 20.11 471.83 21.38 469.41 20.11 466.88 16.92 466.88" style="fill: #fff;stroke: #cccccb;stroke-width: 0.25px"/>
    <rect x="17.47" y="464.92" width="2.19" height="1.97" style="fill: #fff;stroke: #cccccb;stroke-width: 0.25px"/>
    <polygon points="23.01 468.23 21.25 469.12 20.26 467.17 22.02 466.27 23.01 468.23" style="fill: #fff;stroke: #cccccb;stroke-width: 0.25px"/>
    <rect x="17.47" y="471.83" width="2.19" height="1.97" style="fill: #fff;stroke: #cccccb;stroke-width: 0.25px"/>
    <rect x="378.69" y="551.84" width="2.19" height="1.97" transform="translate(-644.33 550.64) rotate(-62.33)" style="fill: #fff;stroke: #cccccb;stroke-width: 0.25px"/>
    <rect x="372.44" y="548.51" width="2.19" height="1.97" transform="translate(-643.64 552.23) rotate(-63.1)" style="fill: #fff;stroke: #cccccb;stroke-width: 0.25px"/>
    <rect x="372.54" y="551.73" width="1.97" height="2.19" transform="translate(-572.23 155.04) rotate(-27.69)" style="fill: #fff;stroke: #cccccb;stroke-width: 0.25px"/>
  </g>
  <g>
    <polygon points="16.92 451.88 15.65 454.41 16.92 456.83 20.11 456.83 21.38 454.41 20.11 451.88 16.92 451.88" style="fill: #fff;stroke: #cccccb;stroke-width: 0.25px"/>
    <rect x="17.47" y="449.92" width="2.19" height="1.97" style="fill: #fff;stroke: #cccccb;stroke-width: 0.25px"/>
    <polygon points="23.01 453.23 21.25 454.12 20.26 452.17 22.02 451.27 23.01 453.23" style="fill: #fff;stroke: #cccccb;stroke-width: 0.25px"/>
    <rect x="17.47" y="456.83" width="2.19" height="1.97" style="fill: #fff;stroke: #cccccb;stroke-width: 0.25px"/>
    <rect x="378.69" y="536.84" width="2.19" height="1.97" transform="translate(-631.04 542.61) rotate(-62.33)" style="fill: #fff;stroke: #cccccb;stroke-width: 0.25px"/>
    <rect x="372.44" y="533.51" width="2.19" height="1.97" transform="translate(-630.26 544.02) rotate(-63.1)" style="fill: #fff;stroke: #cccccb;stroke-width: 0.25px"/>
    <rect x="372.54" y="536.73" width="1.97" height="2.19" transform="translate(-565.26 153.32) rotate(-27.69)" style="fill: #fff;stroke: #cccccb;stroke-width: 0.25px"/>
  </g>
  <g>
    <g>
      <polygon points="75.35 466.8 74.08 469.32 75.35 471.74 78.54 471.74 79.81 469.32 78.54 466.8 75.35 466.8" style="fill: #fff;stroke: #cccccb;stroke-width: 0.25px"/>
      <rect x="75.9" y="464.84" width="2.19" height="1.97" style="fill: #fff;stroke: #cccccb;stroke-width: 0.25px"/>
      <polygon points="81.44 468.15 79.68 469.04 78.69 467.08 80.45 466.19 81.44 468.15" style="fill: #fff;stroke: #cccccb;stroke-width: 0.25px"/>
      <rect x="75.9" y="471.74" width="2.19" height="1.97" style="fill: #fff;stroke: #cccccb;stroke-width: 0.25px"/>
      <rect x="437.12" y="551.76" width="2.19" height="1.97" transform="translate(-612.96 602.34) rotate(-62.33)" style="fill: #fff;stroke: #cccccb;stroke-width: 0.25px"/>
      <rect x="430.87" y="548.43" width="2.19" height="1.97" transform="translate(-611.63 603.99) rotate(-63.08)" style="fill: #fff;stroke: #cccccb;stroke-width: 0.25px"/>
      <rect x="430.97" y="551.65" width="1.97" height="2.19" transform="translate(-565.5 182.18) rotate(-27.69)" style="fill: #fff;stroke: #cccccb;stroke-width: 0.25px"/>
    </g>
    <g>
      <polygon points="73.06 452.65 75.35 451.28 78.54 451.28 80.82 452.65 80.82 454.84 78.54 456.22 75.35 456.22 73.06 454.84 73.06 452.65" style="fill: #fff;stroke: #cccccb;stroke-width: 0.25px"/>
      <rect x="75.9" y="449.31" width="2.19" height="1.97" style="fill: #fff;stroke: #cccccb;stroke-width: 0.25px"/>
      <rect x="437.38" y="531.84" width="1.97" height="2.19" transform="translate(-603.11 547.25) rotate(-58.57)" style="fill: #fff;stroke: #cccccb;stroke-width: 0.25px"/>
      <rect x="437.27" y="537.17" width="2.19" height="1.97" transform="translate(-574.46 225.79) rotate(-31.43)" style="fill: #fff;stroke: #cccccb;stroke-width: 0.25px"/>
      <rect x="430.7" y="531.95" width="2.19" height="1.97" transform="translate(-572.8 221.88) rotate(-31.46)" style="fill: #fff;stroke: #cccccb;stroke-width: 0.25px"/>
      <rect x="430.82" y="537.06" width="1.97" height="2.19" transform="translate(-610.75 543.85) rotate(-58.54)" style="fill: #fff;stroke: #cccccb;stroke-width: 0.25px"/>
      <rect x="75.9" y="456.22" width="2.19" height="1.97" style="fill: #fff;stroke: #cccccb;stroke-width: 0.25px"/>
    </g>
    <g>
      <polygon points="75.35 496.97 74.08 499.49 75.35 501.91 78.54 501.91 79.81 499.49 78.54 496.97 75.35 496.97" style="fill: #fff;stroke: #cccccb;stroke-width: 0.25px"/>
      <rect x="75.9" y="495" width="2.19" height="1.97" style="fill: #fff;stroke: #cccccb;stroke-width: 0.25px"/>
      <polygon points="81.44 498.31 79.68 499.2 78.69 497.25 80.45 496.36 81.44 498.31" style="fill: #fff;stroke: #cccccb;stroke-width: 0.25px"/>
      <rect x="75.9" y="501.91" width="2.19" height="1.97" style="fill: #fff;stroke: #cccccb;stroke-width: 0.25px"/>
      <polygon points="81.45 500.6 79.71 499.69 78.69 501.63 80.44 502.54 81.45 500.6" style="fill: #fff;stroke: #cccccb;stroke-width: 0.25px"/>
      <rect x="430.87" y="578.59" width="2.19" height="1.97" transform="translate(-638.52 620.52) rotate(-63.08)" style="fill: #fff;stroke: #cccccb;stroke-width: 0.25px"/>
      <rect x="430.97" y="581.81" width="1.97" height="2.19" transform="translate(-579.52 185.63) rotate(-27.69)" style="fill: #fff;stroke: #cccccb;stroke-width: 0.25px"/>
    </g>
    <g>
      <polygon points="73.06 482.82 75.35 481.44 78.54 481.44 80.82 482.82 80.82 485.01 78.54 486.39 75.35 486.39 73.06 485.01 73.06 482.82" style="fill: #fff;stroke: #cccccb;stroke-width: 0.25px"/>
      <rect x="75.9" y="479.48" width="2.19" height="1.97" style="fill: #fff;stroke: #cccccb;stroke-width: 0.25px"/>
      <rect x="437.38" y="562" width="1.97" height="2.19" transform="translate(-628.83 561.87) rotate(-58.58)" style="fill: #fff;stroke: #cccccb;stroke-width: 0.25px"/>
      <rect x="437.27" y="567.34" width="2.19" height="1.97" transform="translate(-590.12 230.03) rotate(-31.42)" style="fill: #fff;stroke: #cccccb;stroke-width: 0.25px"/>
      <rect x="430.7" y="562.12" width="2.19" height="1.97" transform="translate(-588.47 226.13) rotate(-31.44)" style="fill: #fff;stroke: #cccccb;stroke-width: 0.25px"/>
      <rect x="430.82" y="567.23" width="1.97" height="2.19" transform="translate(-636.46 558.46) rotate(-58.56)" style="fill: #fff;stroke: #cccccb;stroke-width: 0.25px"/>
      <rect x="75.9" y="486.38" width="2.19" height="1.97" style="fill: #fff;stroke: #cccccb;stroke-width: 0.25px"/>
    </g>
    <g>
      <polygon points="73.06 513.21 75.35 511.84 78.54 511.84 80.82 513.21 80.82 515.4 78.54 516.78 75.35 516.78 73.06 515.4 73.06 513.21" style="fill: #fff;stroke: #cccccb;stroke-width: 0.25px"/>
      <rect x="75.9" y="509.87" width="2.19" height="1.97" style="fill: #fff;stroke: #cccccb;stroke-width: 0.25px"/>
      <rect x="437.38" y="592.39" width="1.97" height="2.19" transform="translate(-654.78 576.22) rotate(-58.57)" style="fill: #fff;stroke: #cccccb;stroke-width: 0.25px"/>
      <rect x="437.27" y="597.73" width="2.19" height="1.97" transform="translate(-606.04 234.67) rotate(-31.43)" style="fill: #fff;stroke: #cccccb;stroke-width: 0.25px"/>
      <rect x="430.7" y="592.51" width="2.19" height="1.97" transform="translate(-604.4 230.78) rotate(-31.46)" style="fill: #fff;stroke: #cccccb;stroke-width: 0.25px"/>
      <rect x="430.82" y="597.62" width="1.97" height="2.19" transform="translate(-662.4 572.8) rotate(-58.54)" style="fill: #fff;stroke: #cccccb;stroke-width: 0.25px"/>
      <rect x="75.9" y="516.77" width="2.19" height="1.97" style="fill: #fff;stroke: #cccccb;stroke-width: 0.25px"/>
    </g>
  </g>
  <g>
    <g>
      <polygon points="5.6 466.8 4.33 469.32 5.6 471.74 8.79 471.74 10.06 469.32 8.79 466.8 5.6 466.8" style="fill: #fff;stroke: #cccccb;stroke-width: 0.25px"/>
      <rect x="6.15" y="464.84" width="2.19" height="1.97" style="fill: #fff;stroke: #cccccb;stroke-width: 0.25px"/>
      <polygon points="11.69 468.15 9.93 469.04 8.94 467.08 10.7 466.19 11.69 468.15" style="fill: #fff;stroke: #cccccb;stroke-width: 0.25px"/>
      <rect x="6.15" y="471.74" width="2.19" height="1.97" style="fill: #fff;stroke: #cccccb;stroke-width: 0.25px"/>
      <rect x="367.37" y="551.76" width="2.19" height="1.97" transform="translate(-650.32 540.57) rotate(-62.33)" style="fill: #fff;stroke: #cccccb;stroke-width: 0.25px"/>
      <rect x="361.12" y="548.43" width="2.19" height="1.97" transform="translate(-649.8 541.8) rotate(-63.08)" style="fill: #fff;stroke: #cccccb;stroke-width: 0.25px"/>
      <rect x="361.22" y="551.65" width="1.97" height="2.19" transform="translate(-573.49 149.77) rotate(-27.69)" style="fill: #fff;stroke: #cccccb;stroke-width: 0.25px"/>
    </g>
    <g>
      <polygon points="3.31 452.65 5.6 451.28 8.79 451.28 11.07 452.65 11.07 454.84 8.79 456.22 5.6 456.22 3.31 454.84 3.31 452.65" style="fill: #fff;stroke: #cccccb;stroke-width: 0.25px"/>
      <rect x="6.15" y="449.31" width="2.19" height="1.97" style="fill: #fff;stroke: #cccccb;stroke-width: 0.25px"/>
      <rect x="367.63" y="531.84" width="1.97" height="2.19" transform="translate(-636.48 487.73) rotate(-58.57)" style="fill: #fff;stroke: #cccccb;stroke-width: 0.25px"/>
      <rect x="367.52" y="537.17" width="2.19" height="1.97" transform="translate(-584.7 189.41) rotate(-31.43)" style="fill: #fff;stroke: #cccccb;stroke-width: 0.25px"/>
      <rect x="360.95" y="531.95" width="2.19" height="1.97" transform="translate(-583.05 185.48) rotate(-31.46)" style="fill: #fff;stroke: #cccccb;stroke-width: 0.25px"/>
      <rect x="361.07" y="537.06" width="1.97" height="2.19" transform="translate(-644.1 484.35) rotate(-58.54)" style="fill: #fff;stroke: #cccccb;stroke-width: 0.25px"/>
      <rect x="6.15" y="456.22" width="2.19" height="1.97" style="fill: #fff;stroke: #cccccb;stroke-width: 0.25px"/>
    </g>
    <g>
      <polygon points="5.6 496.97 4.33 499.49 5.6 501.91 8.79 501.91 10.06 499.49 8.79 496.97 5.6 496.97" style="fill: #fff;stroke: #cccccb;stroke-width: 0.25px"/>
      <rect x="6.15" y="495" width="2.19" height="1.97" style="fill: #fff;stroke: #cccccb;stroke-width: 0.25px"/>
      <polygon points="11.69 498.31 9.93 499.2 8.94 497.25 10.7 496.36 11.69 498.31" style="fill: #fff;stroke: #cccccb;stroke-width: 0.25px"/>
      <rect x="6.15" y="501.91" width="2.19" height="1.97" style="fill: #fff;stroke: #cccccb;stroke-width: 0.25px"/>
      <polygon points="11.7 500.6 9.96 499.69 8.94 501.63 10.69 502.54 11.7 500.6" style="fill: #fff;stroke: #cccccb;stroke-width: 0.25px"/>
      <rect x="361.12" y="578.59" width="2.19" height="1.97" transform="translate(-676.69 558.33) rotate(-63.08)" style="fill: #fff;stroke: #cccccb;stroke-width: 0.25px"/>
      <rect x="361.22" y="581.81" width="1.97" height="2.19" transform="translate(-587.5 153.22) rotate(-27.69)" style="fill: #fff;stroke: #cccccb;stroke-width: 0.25px"/>
    </g>
    <g>
      <polygon points="3.31 482.82 5.6 481.44 8.79 481.44 11.07 482.82 11.07 485.01 8.79 486.39 5.6 486.39 3.31 485.01 3.31 482.82" style="fill: #fff;stroke: #cccccb;stroke-width: 0.25px"/>
      <rect x="6.15" y="479.48" width="2.19" height="1.97" style="fill: #fff;stroke: #cccccb;stroke-width: 0.25px"/>
      <rect x="367.63" y="562" width="1.97" height="2.19" transform="translate(-662.22 502.34) rotate(-58.58)" style="fill: #fff;stroke: #cccccb;stroke-width: 0.25px"/>
      <rect x="367.52" y="567.34" width="2.19" height="1.97" transform="translate(-600.35 193.68) rotate(-31.42)" style="fill: #fff;stroke: #cccccb;stroke-width: 0.25px"/>
      <rect x="360.95" y="562.12" width="2.19" height="1.97" transform="translate(-598.72 189.75) rotate(-31.44)" style="fill: #fff;stroke: #cccccb;stroke-width: 0.25px"/>
      <rect x="361.07" y="567.23" width="1.97" height="2.19" transform="translate(-669.82 498.95) rotate(-58.56)" style="fill: #fff;stroke: #cccccb;stroke-width: 0.25px"/>
      <rect x="6.15" y="486.38" width="2.19" height="1.97" style="fill: #fff;stroke: #cccccb;stroke-width: 0.25px"/>
    </g>
    <g>
      <polygon points="3.31 513.21 5.6 511.84 8.79 511.84 11.07 513.21 11.07 515.4 8.79 516.78 5.6 516.78 3.31 515.4 3.31 513.21" style="fill: #fff;stroke: #cccccb;stroke-width: 0.25px"/>
      <rect x="6.15" y="509.87" width="2.19" height="1.97" style="fill: #fff;stroke: #cccccb;stroke-width: 0.25px"/>
      <rect x="367.63" y="592.39" width="1.97" height="2.19" transform="translate(-688.15 516.71) rotate(-58.57)" style="fill: #fff;stroke: #cccccb;stroke-width: 0.25px"/>
      <rect x="367.52" y="597.73" width="2.19" height="1.97" transform="translate(-616.28 198.3) rotate(-31.43)" style="fill: #fff;stroke: #cccccb;stroke-width: 0.25px"/>
      <rect x="360.95" y="592.51" width="2.19" height="1.97" transform="translate(-614.65 194.38) rotate(-31.46)" style="fill: #fff;stroke: #cccccb;stroke-width: 0.25px"/>
      <rect x="361.07" y="597.62" width="1.97" height="2.19" transform="translate(-695.75 513.3) rotate(-58.54)" style="fill: #fff;stroke: #cccccb;stroke-width: 0.25px"/>
      <rect x="6.15" y="516.77" width="2.19" height="1.97" style="fill: #fff;stroke: #cccccb;stroke-width: 0.25px"/>
    </g>
  </g>
  <g>
    <polygon points="42.07 500.61 43.32 502.69 43.32 505.59 42.07 507.66 40.08 507.66 38.83 505.59 38.83 502.69 40.08 500.61 42.07 500.61" style="fill: #fff;stroke: #cccccb;stroke-width: 0.25px"/>
    <rect x="43.32" y="503.19" width="1.79" height="1.99" style="fill: #fff;stroke: #cccccb;stroke-width: 0.25px"/>
    <rect x="400.59" y="588.02" width="1.99" height="1.79" transform="translate(-668.48 542.56) rotate(-58.56)" style="fill: #fff;stroke: #cccccb;stroke-width: 0.25px"/>
    <rect x="395.95" y="587.92" width="1.79" height="1.99" transform="translate(-607.07 211.67) rotate(-31.44)" style="fill: #fff;stroke: #cccccb;stroke-width: 0.25px"/>
    <rect x="400.7" y="581.95" width="1.79" height="1.99" transform="translate(-603.26 213.27) rotate(-31.44)" style="fill: #fff;stroke: #cccccb;stroke-width: 0.25px"/>
    <rect x="395.84" y="582.06" width="1.99" height="1.79" transform="translate(-665.66 535.65) rotate(-58.56)" style="fill: #fff;stroke: #cccccb;stroke-width: 0.25px"/>
    <rect x="37.04" y="503.19" width="1.79" height="1.99" style="fill: #fff;stroke: #cccccb;stroke-width: 0.25px"/>
  </g>
</svg>
