<svg xmlns="http://www.w3.org/2000/svg" viewBox="0 0 96.66 526.02" width="96.66" height="526.04">
  <title>2016_VSTAR_Deck_8</title>
  <g id="background">
    <path d="M388.34,152.47s3.89-27.14,43.78-27.14c34.27,0,42.94,23.65,42.94,27s.11,383.31.11,383.31,4.77,52.09,4.17,100.29l-5.31.89-.19,3.31s-21.35,10.1-42.18,10.19-42.19-10.19-42.19-10.19l-.18-3.3A44,44,0,0,1,384,636s-1.65-39.28,4.2-100.29C388.72,517.33,388.34,152.47,388.34,152.47Z" transform="translate(-383.24 -124.83)" style="fill: #f3f4f5"/>
    <rect x="16.45" y="204.92" width="64.72" height="47" style="fill: #f3f4f5"/>
    <path d="M422.72,523.81V513.28h-17.8s-3.53,34.86-3.59,54.85,6.33,52.86,11.7,60c0,0,5.12,8.31,18.63,8.31,15,0,19.07-8.31,19.07-8.31,5.36-7.12,11.75-40,11.7-60s-3.77-54.86-3.77-54.86H439.71v10.54Z" transform="translate(-383.24 -124.83)" style="fill: #f3f4f5"/>
    <path d="M475.06,152.37c0-3.39-8.67-27-42.94-27-39.89,0-43.78,27.14-43.78,27.14l0,14.85,86.75.06Z" transform="translate(-383.24 -124.83)" style="fill: #f3f4f5"/>
    <rect x="39.9" y="367.36" width="7.97" height="6.09" style="fill: #fff"/>
    <rect x="42.71" y="367.36" width="2.25" height="1.31" style="fill: none"/>
    <rect x="47.87" y="367.36" width="7.97" height="6.09" style="fill: #fff"/>
    <rect x="50.58" y="367.36" width="2.25" height="1.31" style="fill: none"/>
    <rect x="40" y="193.22" width="7.97" height="6.09" style="fill: #fff"/>
    <rect x="42.91" y="193.22" width="2.34" height="1.5" style="fill: none"/>
    <rect x="47.97" y="193.22" width="7.97" height="6.09" style="fill: #fff"/>
    <rect x="50.69" y="193.22" width="2.34" height="1.5" style="fill: none"/>
    <polygon points="52.04 382.34 43.99 382.35 44.02 384.74 39.79 384.74 39.79 389.66 44.02 389.66 43.99 392.12 52.04 392.12 52.01 389.66 56.19 389.66 56.19 384.74 52.01 384.74 52.04 382.34" style="fill: #fff"/>
    <polygon points="52.04 175.93 44.07 175.92 44.1 173.53 39.91 173.53 39.91 168.6 44.1 168.6 44.07 166.15 52.04 166.15 52.01 168.6 56.15 168.6 56.15 173.53 52.01 173.53 52.04 175.93" style="fill: #fff"/>
    <polygon points="56.05 42.49 56.05 160.25 40 160.25 39.96 42.49 56.05 42.49" style="fill: #fff"/>
    <rect x="21.73" y="379.25" width="11.26" height="9.21" style="fill: #fff"/>
    <rect x="64" y="372.3" width="11.33" height="16.15" style="fill: #fff"/>
    <rect x="33.52" y="251.64" width="32.77" height="57.87" style="fill: none;stroke: #cccccb;stroke-width: 0.5px"/>
    <rect x="33.52" y="333.82" width="32.77" height="4.27" style="fill: #fff;stroke: #cccccb;stroke-width: 0.5px"/>
    <rect x="38.38" y="257.82" width="22.7" height="45.4" rx="1.75" ry="1.75" style="fill: #fff;stroke: #cccccb;stroke-miterlimit: 10;stroke-width: 0.5px"/>
    <rect x="42.71" y="347.57" width="2.25" height="1.31" style="fill: none"/>
    <rect x="50.58" y="347.57" width="2.25" height="1.31" style="fill: none"/>
    <g>
      <path d="M449.14,501a.64.64,0,1,1-.64.64.64.64,0,0,1,.64-.64" transform="translate(-383.24 -124.83)" style="fill: #cccccb"/>
      <rect x="71.21" y="376.04" width="2.33" height="1.46" style="fill: #cccccb"/>
      <path d="M453.84,499.95a.24.24,0,0,1,.29.25V503a.25.25,0,0,1-.29.25l-3.39-.54a.36.36,0,0,1-.29-.34v-1.53a.36.36,0,0,1,.29-.34Z" transform="translate(-383.24 -124.83)" style="fill: #cccccb"/>
    </g>
    <g>
      <path d="M406.91,508.1a.64.64,0,1,1-.64.64.64.64,0,0,1,.64-.64" transform="translate(-383.24 -124.83)" style="fill: #cccccb"/>
      <path d="M408,508v1.56a.59.59,0,0,0,.59.59h2.29a.3.3,0,0,0,.29-.29v-2.15a.3.3,0,0,0-.29-.3h-2.29a.59.59,0,0,0-.59.59" transform="translate(-383.24 -124.83)" style="fill: #cccccb"/>
      <rect x="28.17" y="383.19" width="3.14" height="1.46" style="fill: #cccccb"/>
    </g>
    <path d="M422.72,523.81V513.28h-17.8s-3.53,34.86-3.59,54.85,6.33,52.86,11.7,60c0,0,5.12,8.31,18.63,8.31,15,0,19.07-8.31,19.07-8.31,5.36-7.12,11.75-40,11.7-60s-3.77-54.86-3.77-54.86H439.71v10.53" transform="translate(-383.24 -124.83)" style="fill: none;stroke: #cccccb;stroke-miterlimit: 10;stroke-width: 0.75px"/>
    <rect x="39.38" y="398.98" width="17.19" height="21.55" style="fill: none;stroke: #cccccb;stroke-miterlimit: 10;stroke-width: 0.5px"/>
    <rect x="21.73" y="379.25" width="11.26" height="9.21" style="fill: none;stroke: #cccccb;stroke-width: 0.5px"/>
    <rect x="64" y="372.3" width="11.33" height="16.15" style="fill: none;stroke: #cccccb;stroke-width: 0.5px"/>
    <line x1="30.96" y1="42.54" x2="30.88" y2="160.53" style="fill: none;stroke: #231f20;stroke-width: 0.5px"/>
    <polyline points="30.86 42.55 30.86 166.73 5.3 166.73" style="fill: none;stroke: #cccccb;stroke-width: 0.75px"/>
    <polyline points="66.08 42.55 66.08 166.73 91.63 166.73" style="fill: none;stroke: #cccccb;stroke-width: 0.75px"/>
    <path d="M388.34,152.47s3.89-27.14,43.78-27.14c34.27,0,42.94,23.65,42.94,27s.11,383.31.11,383.31,4.77,52.09,4.17,100.29l-5.31.89-.19,3.31s-21.35,10.1-42.18,10.19-42.19-10.19-42.19-10.19l-.18-3.3A44,44,0,0,1,384,636s-1.65-39.28,4.2-100.29C388.72,517.33,388.34,152.47,388.34,152.47Z" transform="translate(-383.24 -124.83)" style="fill: none;stroke: #989897"/>
    <g>
      <rect x="39.9" y="367.36" width="7.97" height="6.09" style="fill: none;stroke: #cccccb;stroke-width: 0.5px"/>
      <rect x="42.71" y="367.36" width="2.25" height="1.31" style="fill: none;stroke: #cccccb;stroke-width: 0.25px"/>
      <rect x="47.87" y="367.36" width="7.97" height="6.09" style="fill: none;stroke: #cccccb;stroke-width: 0.5px"/>
      <rect x="50.58" y="367.36" width="2.25" height="1.31" style="fill: none;stroke: #cccccb;stroke-width: 0.25px"/>
    </g>
    <rect x="40" y="193.22" width="7.97" height="6.09" style="fill: none;stroke: #cccccb;stroke-width: 0.5px"/>
    <rect x="42.91" y="193.21" width="2.34" height="1.51" style="fill: none;stroke: #cccccb;stroke-width: 0.25px"/>
    <rect x="47.97" y="193.22" width="7.97" height="6.09" style="fill: none;stroke: #cccccb;stroke-width: 0.5px"/>
    <rect x="50.69" y="193.21" width="2.34" height="1.51" style="fill: none;stroke: #cccccb;stroke-width: 0.25px"/>
    <g>
      <polyline points="44.07 166.15 44.07 175.92 52.04 175.93 52.04 166.15" style="fill: none;stroke: #cccccb;stroke-miterlimit: 10;stroke-width: 0.5px"/>
      <line x1="39.92" y1="169.83" x2="56.16" y2="169.83" style="fill: none;stroke: #cccccb;stroke-miterlimit: 10;stroke-width: 0.5px"/>
      <line x1="39.92" y1="171.08" x2="56.16" y2="171.08" style="fill: none;stroke: #cccccb;stroke-miterlimit: 10;stroke-width: 0.5px"/>
      <line x1="39.92" y1="172.29" x2="56.13" y2="172.29" style="fill: none;stroke: #cccccb;stroke-miterlimit: 10;stroke-width: 0.5px"/>
      <line x1="44.08" y1="167.41" x2="52.03" y2="167.41" style="fill: none;stroke: #cccccb;stroke-miterlimit: 10;stroke-width: 0.5px"/>
      <line x1="44.08" y1="168.62" x2="52.03" y2="168.62" style="fill: none;stroke: #cccccb;stroke-miterlimit: 10;stroke-width: 0.5px"/>
      <line x1="44.06" y1="173.53" x2="52.05" y2="173.53" style="fill: none;stroke: #cccccb;stroke-miterlimit: 10;stroke-width: 0.5px"/>
      <line x1="44.06" y1="174.74" x2="52.03" y2="174.74" style="fill: none;stroke: #cccccb;stroke-miterlimit: 10;stroke-width: 0.5px"/>
      <polyline points="44.05 173.53 39.91 173.53 39.91 168.6 44.05 168.6" style="fill: none;stroke: #cccccb;stroke-miterlimit: 10;stroke-width: 0.5px"/>
      <polyline points="52.01 173.53 56.15 173.53 56.15 168.6 52.01 168.6" style="fill: none;stroke: #cccccb;stroke-miterlimit: 10;stroke-width: 0.5px"/>
    </g>
    <polyline points="39.96 176.07 39.96 42.54 56.1 42.54 56.1 176.07" style="fill: none;stroke: #cccccb;stroke-miterlimit: 10;stroke-width: 0.5px"/>
    <g>
      <g>
        <polyline points="43.99 392.12 43.99 382.35 52.04 382.34 52.04 392.12" style="fill: none;stroke: #cccccb;stroke-width: 0.5px"/>
        <line x1="39.8" y1="388.43" x2="56.2" y2="388.43" style="fill: none;stroke: #cccccb;stroke-width: 0.25px"/>
        <line x1="39.8" y1="387.19" x2="56.2" y2="387.19" style="fill: none;stroke: #cccccb;stroke-width: 0.25px"/>
        <line x1="39.8" y1="385.98" x2="56.17" y2="385.98" style="fill: none;stroke: #cccccb;stroke-width: 0.25px"/>
        <line x1="44" y1="390.86" x2="52.03" y2="390.86" style="fill: none;stroke: #cccccb;stroke-width: 0.25px"/>
        <line x1="44" y1="389.65" x2="52.03" y2="389.65" style="fill: none;stroke: #cccccb;stroke-width: 0.25px"/>
        <line x1="43.98" y1="384.73" x2="52.05" y2="384.73" style="fill: none;stroke: #cccccb;stroke-width: 0.25px"/>
        <line x1="43.98" y1="383.53" x2="52.03" y2="383.53" style="fill: none;stroke: #cccccb;stroke-width: 0.25px"/>
        <polyline points="43.97 384.74 39.79 384.74 39.79 389.66 43.97 389.66" style="fill: none;stroke: #cccccb;stroke-width: 0.5px"/>
        <polyline points="52.01 384.74 56.19 384.74 56.19 389.66 52.01 389.66" style="fill: none;stroke: #cccccb;stroke-width: 0.5px"/>
      </g>
      <line x1="39.79" y1="384.74" x2="39.79" y2="381.65" style="fill: none;stroke: #cccccb;stroke-miterlimit: 10;stroke-width: 0.5px"/>
      <line x1="56.19" y1="384.74" x2="56.19" y2="381.65" style="fill: none;stroke: #cccccb;stroke-miterlimit: 10;stroke-width: 0.5px"/>
    </g>
    <line x1="40.09" y1="160.32" x2="56.05" y2="160.32" style="fill: none;stroke: #cccccb;stroke-miterlimit: 10;stroke-width: 0.5px"/>
    <line x1="91.88" y1="42.54" x2="5.05" y2="42.52" style="fill: none;stroke: #cccccb;stroke-width: 0.75px"/>
    <polyline points="65.97 166.81 65.97 199.43 30.98 199.43 30.98 166.81" style="fill: none;stroke: #cccccb;stroke-miterlimit: 10;stroke-width: 0.5px"/>
    <line x1="16.51" y1="251.82" x2="81.26" y2="251.82" style="fill: none;stroke: #cccccb;stroke-miterlimit: 10;stroke-width: 0.5px"/>
    <line x1="21.73" y1="348.92" x2="21.73" y2="388.46" style="fill: none;stroke: #cccccb;stroke-width: 0.5px"/>
    <line x1="75.41" y1="388.46" x2="75.41" y2="348.92" style="fill: none;stroke: #cccccb;stroke-width: 0.5px"/>
    <g>
      <path d="M394.37,152s5-8,9.57-10.36" transform="translate(-383.24 -124.83)" style="fill: none;stroke: #cccccb;stroke-linecap: round;stroke-linejoin: round;stroke-width: 0.5px"/>
      <path d="M398.16,154.58s4.07-6.4,8.66-9.31" transform="translate(-383.24 -124.83)" style="fill: none;stroke: #cccccb;stroke-linecap: round;stroke-linejoin: round;stroke-width: 0.5px"/>
      <line x1="19.87" y1="17.24" x2="22.96" y2="20.94" style="fill: none;stroke: #cccccb;stroke-miterlimit: 10;stroke-width: 0.25px"/>
      <line x1="18.92" y1="17.93" x2="22.1" y2="21.55" style="fill: none;stroke: #cccccb;stroke-miterlimit: 10;stroke-width: 0.25px"/>
      <line x1="18.06" y1="18.66" x2="21.27" y2="22.25" style="fill: none;stroke: #cccccb;stroke-miterlimit: 10;stroke-width: 0.25px"/>
      <line x1="17.31" y1="19.35" x2="20.54" y2="22.98" style="fill: none;stroke: #cccccb;stroke-miterlimit: 10;stroke-width: 0.25px"/>
      <line x1="16.62" y1="20.25" x2="19.87" y2="23.67" style="fill: none;stroke: #cccccb;stroke-miterlimit: 10;stroke-width: 0.25px"/>
      <line x1="11.62" y1="26.39" x2="15.22" y2="29.23" style="fill: none;stroke: #cccccb;stroke-miterlimit: 10;stroke-width: 0.25px"/>
      <line x1="12.15" y1="25.48" x2="15.92" y2="28.44" style="fill: none;stroke: #cccccb;stroke-miterlimit: 10;stroke-width: 0.25px"/>
      <line x1="12.74" y1="24.52" x2="16.62" y2="27.65" style="fill: none;stroke: #cccccb;stroke-miterlimit: 10;stroke-width: 0.25px"/>
      <line x1="13.49" y1="23.68" x2="17.18" y2="26.75" style="fill: none;stroke: #cccccb;stroke-miterlimit: 10;stroke-width: 0.25px"/>
      <line x1="14.1" y1="22.76" x2="17.85" y2="25.94" style="fill: none;stroke: #cccccb;stroke-miterlimit: 10;stroke-width: 0.25px"/>
    </g>
    <g>
      <path d="M469.45,152s-5-8-9.57-10.36" transform="translate(-383.24 -124.83)" style="fill: none;stroke: #cccccb;stroke-linecap: round;stroke-linejoin: round;stroke-width: 0.5px"/>
      <path d="M465.67,154.58s-4.07-6.4-8.66-9.31" transform="translate(-383.24 -124.83)" style="fill: none;stroke: #cccccb;stroke-linecap: round;stroke-linejoin: round;stroke-width: 0.5px"/>
      <line x1="77.48" y1="17.24" x2="74.39" y2="20.94" style="fill: none;stroke: #cccccb;stroke-miterlimit: 10;stroke-width: 0.25px"/>
      <line x1="78.43" y1="17.93" x2="75.26" y2="21.55" style="fill: none;stroke: #cccccb;stroke-miterlimit: 10;stroke-width: 0.25px"/>
      <line x1="79.3" y1="18.66" x2="76.09" y2="22.25" style="fill: none;stroke: #cccccb;stroke-miterlimit: 10;stroke-width: 0.25px"/>
      <line x1="80.05" y1="19.35" x2="76.82" y2="22.98" style="fill: none;stroke: #cccccb;stroke-miterlimit: 10;stroke-width: 0.25px"/>
      <line x1="80.73" y1="20.25" x2="77.48" y2="23.67" style="fill: none;stroke: #cccccb;stroke-miterlimit: 10;stroke-width: 0.25px"/>
      <line x1="85.74" y1="26.39" x2="82.13" y2="29.23" style="fill: none;stroke: #cccccb;stroke-miterlimit: 10;stroke-width: 0.25px"/>
      <line x1="85.21" y1="25.48" x2="81.43" y2="28.44" style="fill: none;stroke: #cccccb;stroke-miterlimit: 10;stroke-width: 0.25px"/>
      <line x1="84.62" y1="24.52" x2="80.73" y2="27.65" style="fill: none;stroke: #cccccb;stroke-miterlimit: 10;stroke-width: 0.25px"/>
      <line x1="83.86" y1="23.68" x2="80.17" y2="26.75" style="fill: none;stroke: #cccccb;stroke-miterlimit: 10;stroke-width: 0.25px"/>
      <line x1="83.25" y1="22.76" x2="79.5" y2="25.94" style="fill: none;stroke: #cccccb;stroke-miterlimit: 10;stroke-width: 0.25px"/>
    </g>
    <text transform="translate(44.32 39.03) rotate(-90)" style="font-size: 7px;fill: #cccccb;font-family: Arial-BoldMT, Arial;font-weight: 700">Explorers’<tspan x="4.48" y="7.5">Lounge</tspan><tspan style="font-size: 5.5px"><tspan x="1.38" y="15">Upper Level</tspan></tspan></text>
    <text transform="translate(46.32 246.98) rotate(-90)" style="font-size: 7px;fill: #cccccb;font-family: Arial-BoldMT, Arial;font-weight: 700">Retractable<tspan x="11.09" y="8.4">Roof</tspan></text>
    <text transform="translate(49.84 362.53) rotate(-90) scale(1 1.16)" style="font-size: 5px;fill: #cccccb;font-family: Arial-BoldMT, Arial;font-weight: 700">Lifts</text>
    <text transform="translate(49.24 191.99) rotate(-90) scale(1 1.16)" style="font-size: 5px;fill: #cccccb;font-family: Arial-BoldMT, Arial;font-weight: 700">Lifts</text>
    <g>
      <path d="M450.71,507.87a.72.72,0,0,1,0,.08.68.68,0,0,1-.75.6.68.68,0,0,1-.35-1.21.67.67,0,0,1,.5-.14A.68.68,0,0,1,450.71,507.87Z" transform="translate(-383.24 -124.83)" style="fill: #cccccb"/>
      <path d="M455,506.43a2,2,0,0,1,1.55,2,2,2,0,0,1-2,2,2,2,0,0,1-1.83-1.18h.7a1.43,1.43,0,0,0,2.57-.87,1.35,1.35,0,0,0-1.36-1.39h-.47Z" transform="translate(-383.24 -124.83)" style="fill: #cccccb"/>
      <path d="M455.22,505.85c0,.12-.11.2-.22.27l-1.44.91v1.6a.4.4,0,0,1-.07.24.45.45,0,0,1-.38.22H453l-1.24-.16.19.4.91.54a.34.34,0,0,1,.16.3v0a.35.35,0,0,1,0,.11.33.33,0,0,1-.2.16.32.32,0,0,1-.25,0l-1-.57a.33.33,0,0,1-.12-.11.18.18,0,0,1-.06-.07l-.53-1.09a.27.27,0,0,1,0-.1.55.55,0,0,1,0-.3.6.6,0,0,1,.66-.53l1.22.19v-1a.43.43,0,0,1,.27-.4l1.44-.92-.1-.18a.32.32,0,0,1,.11-.42.31.31,0,0,1,.42.11l.31.56A.32.32,0,0,1,455.22,505.85Z" transform="translate(-383.24 -124.83)" style="fill: #cccccb"/>
    </g>
    <rect x="38.38" y="302.77" width="22.6" height="6.8" style="fill: #fff;stroke: #cccccb;stroke-miterlimit: 10;stroke-width: 0.5px"/>
    <path d="M427.07,464.63a6.4,6.4,0,0,0-3.8,1.38v7.73h8V466A8.52,8.52,0,0,0,427.07,464.63Z" transform="translate(-383.24 -124.83)" style="fill: #fff"/>
    <path d="M435,464.63a6.39,6.39,0,0,0-3.79,1.38v7.73h8V466A8.53,8.53,0,0,0,435,464.63Z" transform="translate(-383.24 -124.83)" style="fill: #fff"/>
    <g>
      <path d="M427.07,464.63a6.4,6.4,0,0,0-3.8,1.38v7.73h8V466A8.52,8.52,0,0,0,427.07,464.63Z" transform="translate(-383.24 -124.83)" style="fill: none;stroke: #cccccb;stroke-width: 0.5px"/>
      <path d="M435,464.63a6.4,6.4,0,0,0-3.8,1.38v7.73h8V466A8.52,8.52,0,0,0,435,464.63Z" transform="translate(-383.24 -124.83)" style="fill: none;stroke: #cccccb;stroke-width: 0.5px"/>
      <rect x="42.71" y="347.57" width="2.25" height="1.31" style="fill: none;stroke: #cccccb;stroke-width: 0.25px"/>
      <rect x="50.58" y="347.57" width="2.25" height="1.31" style="fill: none;stroke: #cccccb;stroke-width: 0.25px"/>
    </g>
    <rect x="16.45" y="204.92" width="64.72" height="144" style="fill: none;stroke: #cccccb;stroke-miterlimit: 10;stroke-width: 0.75px"/>
    <text transform="translate(50.65 319.05) rotate(-90)" style="font-size: 7px;fill: #cccccb;font-family: Arial-BoldMT, Arial;font-weight: 700">Open To Below</text>
  </g>
  <g id="_8000_fill" data-name="8000_fill">
    <rect id="8000_fill" x="5.05" y="42.63" width="25.61" height="13.15" style="fill: #e6b222"/>
  </g>
  <g id="_8000_type" data-name="8000_type">
    <text id="8000_type" transform="translate(12.14 51.74)" style="font-size: 7px;fill: #fff;font-family: Arial-BoldMT, Arial;font-weight: 700"><tspan style="letter-spacing: 0.023995535714285716em">8</tspan><tspan x="4.06" y="0" style="letter-spacing: 0.024972098214285716em">0</tspan><tspan x="8.13" y="0" style="letter-spacing: 0.024065290178571428em">0</tspan><tspan x="12.19" y="0">0</tspan></text>
  </g>
  <g id="_8000_balcony" data-name="8000_balcony">
    <line id="8000_balcony" x1="9.99" y1="42.62" x2="9.99" y2="55.78" style="fill: none;stroke: #989897;stroke-miterlimit: 10;stroke-width: 0.5px"/>
  </g>
  <g id="_8000_outline" data-name="8000_outline">
    <rect id="8000_outline" x="5.05" y="42.63" width="25.61" height="13.15" style="fill: none;stroke: #989897;stroke-miterlimit: 10"/>
  </g>
  <g id="_8001_fill" data-name="8001_fill">
    <rect id="8001_fill" x="66.17" y="42.63" width="25.61" height="13.15" style="fill: #e6b222"/>
  </g>
  <g id="_8001_type" data-name="8001_type">
    <text id="8001_type" transform="translate(68.39 51.74)" style="font-size: 7px;fill: #fff;font-family: Arial-BoldMT, Arial;font-weight: 700"><tspan style="letter-spacing: 0.023995535714285716em">8</tspan><tspan x="4.06" y="0" style="letter-spacing: 0.024972098214285716em">0</tspan><tspan x="8.13" y="0" style="letter-spacing: 0.024065290178571428em">0</tspan><tspan x="12.19" y="0">1</tspan></text>
  </g>
  <g id="_8001_balcony" data-name="8001_balcony">
    <line id="8001_balcony" x1="86.89" y1="42.62" x2="86.89" y2="55.55" style="fill: none;stroke: #989897;stroke-miterlimit: 10;stroke-width: 0.5px"/>
  </g>
  <g id="_8001_outline" data-name="8001_outline">
    <rect id="8001_outline" x="66.17" y="42.63" width="25.61" height="13.15" style="fill: none;stroke: #989897;stroke-miterlimit: 10"/>
  </g>
  <g id="_8002_fill" data-name="8002_fill">
    <rect id="8002_fill" x="5.05" y="55.89" width="25.61" height="13.15" style="fill: #e6b222"/>
  </g>
  <g id="_8002_type" data-name="8002_type">
    <text id="8002_type" transform="translate(12.14 64.49)" style="font-size: 7px;fill: #fff;font-family: Arial-BoldMT, Arial;font-weight: 700"><tspan style="letter-spacing: 0.023995535714285716em">8</tspan><tspan x="4.06" y="0" style="letter-spacing: 0.024972098214285716em">0</tspan><tspan x="8.13" y="0" style="letter-spacing: 0.024065290178571428em">0</tspan><tspan x="12.19" y="0">2</tspan></text>
  </g>
  <g id="_8002_balcony" data-name="8002_balcony">
    <line id="8002_balcony" x1="9.99" y1="55.81" x2="9.99" y2="68.96" style="fill: none;stroke: #989897;stroke-miterlimit: 10;stroke-width: 0.5px"/>
  </g>
  <g id="_8002_outline" data-name="8002_outline">
    <rect id="8002_outline" x="5.05" y="55.89" width="25.61" height="13.15" style="fill: none;stroke: #989897;stroke-miterlimit: 10"/>
  </g>
  <g id="_8003_fill" data-name="8003_fill">
    <rect id="8003_fill" x="66.17" y="55.89" width="25.61" height="13.15" style="fill: #e6b222"/>
  </g>
  <g id="_8003_type" data-name="8003_type">
    <text id="8003_type" transform="translate(68.39 64.49)" style="font-size: 7px;fill: #fff;font-family: Arial-BoldMT, Arial;font-weight: 700"><tspan style="letter-spacing: 0.023995535714285716em">8</tspan><tspan x="4.06" y="0" style="letter-spacing: 0.024972098214285716em">0</tspan><tspan x="8.13" y="0" style="letter-spacing: 0.024065290178571428em">0</tspan><tspan x="12.19" y="0">3</tspan></text>
  </g>
  <g id="_8003_balcony" data-name="8003_balcony">
    <line id="8003_balcony" x1="86.89" y1="56.07" x2="86.89" y2="68.99" style="fill: none;stroke: #989897;stroke-miterlimit: 10;stroke-width: 0.5px"/>
  </g>
  <g id="_8003_outline" data-name="8003_outline">
    <rect id="8003_outline" x="66.17" y="55.89" width="25.61" height="13.48" style="fill: none;stroke: #989897;stroke-miterlimit: 10"/>
  </g>
  <g id="_8004_fill" data-name="8004_fill">
    <rect id="8004_fill" x="5.05" y="69.37" width="25.61" height="13.15" style="fill: #e6b222"/>
  </g>
  <g id="_8004_type" data-name="8004_type">
    <text id="8004_type" transform="translate(12.14 77.31)" style="font-size: 7px;fill: #fff;font-family: Arial-BoldMT, Arial;font-weight: 700"><tspan style="letter-spacing: 0.023995535714285716em">8</tspan><tspan x="4.06" y="0" style="letter-spacing: 0.024972098214285716em">0</tspan><tspan x="8.13" y="0" style="letter-spacing: 0.024065290178571428em">0</tspan><tspan x="12.19" y="0">4</tspan></text>
  </g>
  <g id="_8004_balcony" data-name="8004_balcony">
    <line id="8004_balcony" x1="9.99" y1="69.18" x2="9.99" y2="82.34" style="fill: none;stroke: #989897;stroke-miterlimit: 10;stroke-width: 0.5px"/>
  </g>
  <g id="_8004_outline" data-name="8004_outline">
    <rect id="8004_outline" x="5.05" y="69.18" width="25.61" height="13.33" style="fill: none;stroke: #989897;stroke-miterlimit: 10"/>
  </g>
  <g id="_8005_fill" data-name="8005_fill">
    <rect id="8005_fill" x="66.17" y="69.37" width="25.61" height="13.15" style="fill: #e6b222"/>
  </g>
  <g id="_8005_type" data-name="8005_type">
    <text id="8005_type" transform="translate(68.39 77.31)" style="font-size: 7px;fill: #fff;font-family: Arial-BoldMT, Arial;font-weight: 700"><tspan style="letter-spacing: 0.023995535714285716em">8</tspan><tspan x="4.06" y="0" style="letter-spacing: 0.024972098214285716em">0</tspan><tspan x="8.13" y="0" style="letter-spacing: 0.024065290178571428em">0</tspan><tspan x="12.19" y="0">5</tspan></text>
  </g>
  <g id="_8005_balcony" data-name="8005_balcony">
    <line id="8005_balcony" x1="86.89" y1="69.63" x2="86.89" y2="82.56" style="fill: none;stroke: #989897;stroke-miterlimit: 10;stroke-width: 0.5px"/>
  </g>
  <g id="_8005_outline" data-name="8005_outline">
    <rect id="8005_outline" x="66.17" y="69.37" width="25.61" height="13.15" style="fill: none;stroke: #989897;stroke-miterlimit: 10"/>
  </g>
  <g id="_8006_fill" data-name="8006_fill">
    <rect id="8006_fill" x="5.05" y="82.11" width="25.61" height="13.15" style="fill: #e6b222"/>
  </g>
  <g id="_8006_type" data-name="8006_type">
    <text id="8006_type" transform="translate(12.14 90.52)" style="font-size: 7px;fill: #fff;font-family: Arial-BoldMT, Arial;font-weight: 700"><tspan style="letter-spacing: 0.023995535714285716em">8</tspan><tspan x="4.06" y="0" style="letter-spacing: 0.024972098214285716em">0</tspan><tspan x="8.13" y="0" style="letter-spacing: 0.024065290178571428em">0</tspan><tspan x="12.19" y="0">6</tspan></text>
  </g>
  <g id="_8006_balcony" data-name="8006_balcony">
    <line id="8006_balcony" x1="9.99" y1="82.11" x2="9.99" y2="95.27" style="fill: none;stroke: #989897;stroke-miterlimit: 10;stroke-width: 0.5px"/>
  </g>
  <g id="_8006_outline" data-name="8006_outline">
    <rect id="8006_outline" x="5.05" y="82.11" width="25.61" height="13.15" style="fill: none;stroke: #989897;stroke-miterlimit: 10"/>
  </g>
  <g id="_8007_fill" data-name="8007_fill">
    <rect id="8007_fill" x="66.17" y="82.52" width="25.61" height="12.46" style="fill: #e6b222"/>
  </g>
  <g id="_8007_type" data-name="8007_type">
    <text id="8007_type" transform="translate(68.39 90.52)" style="font-size: 7px;fill: #fff;font-family: Arial-BoldMT, Arial;font-weight: 700"><tspan style="letter-spacing: 0.023995535714285716em">8</tspan><tspan x="4.06" y="0" style="letter-spacing: 0.024972098214285716em">0</tspan><tspan x="8.13" y="0" style="letter-spacing: 0.024065290178571428em">0</tspan><tspan x="12.19" y="0">7</tspan></text>
  </g>
  <g id="_8007_balcony" data-name="8007_balcony">
    <line id="8007_balcony" x1="86.89" y1="82.06" x2="86.89" y2="94.98" style="fill: none;stroke: #989897;stroke-miterlimit: 10;stroke-width: 0.5px"/>
  </g>
  <g id="_8007_outline" data-name="8007_outline">
    <rect id="8007_outline" x="66.17" y="82.52" width="25.61" height="12.46" style="fill: none;stroke: #989897;stroke-miterlimit: 10"/>
  </g>
  <g id="_8008_fill" data-name="8008_fill">
    <rect id="8008_fill" x="5.05" y="95.41" width="25.61" height="13.15" style="fill: #e6b222"/>
  </g>
  <g id="_8008_type" data-name="8008_type">
    <text id="8008_type" transform="translate(12.14 103.83)" style="font-size: 7px;fill: #fff;font-family: Arial-BoldMT, Arial;font-weight: 700"><tspan style="letter-spacing: 0.023995535714285716em">8</tspan><tspan x="4.06" y="0" style="letter-spacing: 0.024972098214285716em">0</tspan><tspan x="8.13" y="0" style="letter-spacing: 0.024065290178571428em">0</tspan><tspan x="12.19" y="0">8</tspan></text>
  </g>
  <g id="_8008_balcony" data-name="8008_balcony">
    <line id="8008_balcony" x1="9.99" y1="95.49" x2="9.99" y2="108.64" style="fill: none;stroke: #989897;stroke-miterlimit: 10;stroke-width: 0.5px"/>
  </g>
  <g id="_8008_outline" data-name="8008_outline">
    <rect id="8008_outline" x="5.05" y="95.41" width="25.61" height="13.15" style="fill: none;stroke: #989897;stroke-miterlimit: 10"/>
  </g>
  <g id="_8009_fill" data-name="8009_fill">
    <rect id="8009_fill" x="66.17" y="95.08" width="25.61" height="13.63" style="fill: #e6b222"/>
  </g>
  <g id="_8009_type" data-name="8009_type">
    <text id="8009_type" transform="translate(68.39 103.83)" style="font-size: 7px;fill: #fff;font-family: Arial-BoldMT, Arial;font-weight: 700"><tspan style="letter-spacing: 0.023995535714285716em">8</tspan><tspan x="4.06" y="0" style="letter-spacing: 0.024972098214285716em">0</tspan><tspan x="8.13" y="0" style="letter-spacing: 0.024065290178571428em">0</tspan><tspan x="12.19" y="0">9</tspan></text>
  </g>
  <g id="_8009_balcony" data-name="8009_balcony">
    <line id="8009_balcony" x1="86.89" y1="94.84" x2="86.89" y2="108.71" style="fill: none;stroke: #989897;stroke-miterlimit: 10;stroke-width: 0.5px"/>
  </g>
  <g id="_8009_outline" data-name="8009_outline">
    <rect id="8009_outline" x="66.17" y="95.08" width="25.61" height="13.63" style="fill: none;stroke: #989897;stroke-miterlimit: 10"/>
  </g>
  <g id="_8010_fill" data-name="8010_fill">
    <rect id="8010_fill" x="5.05" y="108.33" width="25.61" height="13.15" style="fill: #e6b222"/>
  </g>
  <g id="_8010_type" data-name="8010_type">
    <text id="8010_type" transform="translate(12.39 116.89)" style="font-size: 7px;fill: #fff;font-family: Arial-BoldMT, Arial;font-weight: 700"><tspan style="letter-spacing: 0.023995535714285716em">8</tspan><tspan x="4.06" y="0" style="letter-spacing: 0.024972098214285716em">0</tspan><tspan x="8.13" y="0" style="letter-spacing: 0.024065290178571428em">1</tspan><tspan x="12.19" y="0">0</tspan></text>
  </g>
  <g id="_8010_balcony" data-name="8010_balcony">
    <line id="8010_balcony" x1="9.99" y1="108.36" x2="9.99" y2="121.52" style="fill: none;stroke: #989897;stroke-miterlimit: 10;stroke-width: 0.5px"/>
  </g>
  <g id="_8010_outline" data-name="8010_outline">
    <rect id="8010_outline" x="5.05" y="108.33" width="25.61" height="13.15" style="fill: none;stroke: #989897;stroke-miterlimit: 10"/>
  </g>
  <g id="_8011_fill" data-name="8011_fill">
    <rect id="8011_fill" x="66.17" y="108.71" width="25.61" height="12.9" style="fill: #e6b222"/>
  </g>
  <g id="_8011_type" data-name="8011_type">
    <text id="8011_type" transform="translate(68.64 116.89)" style="font-size: 7px;fill: #fff;font-family: Arial-BoldMT, Arial;font-weight: 700"><tspan style="letter-spacing: 0.023995535714285716em">8</tspan><tspan x="4.06" y="0" style="letter-spacing: 0.024972098214285716em">0</tspan><tspan x="8.13" y="0" style="letter-spacing: 0.024065290178571428em">1</tspan><tspan x="12.19" y="0">1</tspan></text>
  </g>
  <g id="_8011_balcony" data-name="8011_balcony">
    <line id="8011_balcony" x1="86.89" y1="108.71" x2="86.89" y2="121.65" style="fill: none;stroke: #989897;stroke-miterlimit: 10;stroke-width: 0.5px"/>
  </g>
  <g id="_8011_outline" data-name="8011_outline">
    <rect id="8011_outline" x="66.17" y="108.71" width="25.61" height="12.9" style="fill: none;stroke: #989897;stroke-miterlimit: 10"/>
  </g>
  <g id="_8012_fill" data-name="8012_fill">
    <rect id="8012_fill" x="5.05" y="121.61" width="25.61" height="9.47" style="fill: #008ac5"/>
  </g>
  <g id="_8012_type" data-name="8012_type">
    <text id="8012_type" transform="translate(12.14 128.71)" style="font-size: 7px;fill: #fff;font-family: Arial-BoldMT, Arial;font-weight: 700"><tspan style="letter-spacing: 0.023995535714285716em">8</tspan><tspan x="4.06" y="0" style="letter-spacing: 0.024972098214285716em">0</tspan><tspan x="8.13" y="0" style="letter-spacing: 0.024065290178571428em">1</tspan><tspan x="12.19" y="0">2</tspan></text>
  </g>
  <g id="_8012_balcony" data-name="8012_balcony">
    <line id="8012_balcony" x1="9.99" y1="121.48" x2="9.99" y2="131.38" style="fill: none;stroke: #989897;stroke-miterlimit: 10;stroke-width: 0.5px"/>
  </g>
  <g id="_8012_outline" data-name="8012_outline">
    <rect id="8012_outline" x="5.05" y="121.61" width="25.61" height="9.47" style="fill: none;stroke: #989897;stroke-miterlimit: 10"/>
  </g>
  <g id="_8013_fill" data-name="8013_fill">
    <rect id="8013_fill" x="66.17" y="121.61" width="25.61" height="9.47" style="fill: #008ac5"/>
  </g>
  <g id="_8013_type" data-name="8013_type">
    <text id="8013_type" transform="translate(68.39 128.71)" style="font-size: 7px;fill: #fff;font-family: Arial-BoldMT, Arial;font-weight: 700"><tspan style="letter-spacing: 0.023995535714285716em">8</tspan><tspan x="4.06" y="0" style="letter-spacing: 0.024972098214285716em">0</tspan><tspan x="8.13" y="0" style="letter-spacing: 0.024065290178571428em">1</tspan><tspan x="12.19" y="0">3</tspan></text>
  </g>
  <g id="_8013_balcony" data-name="8013_balcony">
    <line id="8013_balcony" x1="86.89" y1="121.48" x2="86.89" y2="131.38" style="fill: none;stroke: #989897;stroke-miterlimit: 10;stroke-width: 0.5px"/>
  </g>
  <g id="_8013_outline" data-name="8013_outline">
    <rect id="8013_outline" x="66.17" y="121.61" width="25.61" height="9.47" style="fill: none;stroke: #989897;stroke-miterlimit: 10"/>
  </g>
  <g id="_8014_fill" data-name="8014_fill">
    <rect id="8014_fill" x="5.05" y="130.86" width="25.61" height="9.47" style="fill: #008ac5"/>
  </g>
  <g id="_8014_type" data-name="8014_type">
    <text id="8014_type" transform="translate(12.14 138.4)" style="font-size: 7px;fill: #fff;font-family: Arial-BoldMT, Arial;font-weight: 700"><tspan style="letter-spacing: 0.023995535714285716em">8</tspan><tspan x="4.06" y="0" style="letter-spacing: 0.024972098214285716em">0</tspan><tspan x="8.13" y="0" style="letter-spacing: 0.024065290178571428em">1</tspan><tspan x="12.19" y="0">4</tspan></text>
  </g>
  <g id="_8014_balcony" data-name="8014_balcony">
    <line id="8014_balcony" x1="9.99" y1="130.64" x2="9.99" y2="140.54" style="fill: none;stroke: #989897;stroke-miterlimit: 10;stroke-width: 0.5px"/>
  </g>
  <g id="_8014_outline" data-name="8014_outline">
    <rect id="8014_outline" x="5.05" y="130.86" width="25.61" height="9.47" style="fill: none;stroke: #989897;stroke-miterlimit: 10"/>
  </g>
  <g id="_8015_fill" data-name="8015_fill">
    <rect id="8015_fill" x="66.17" y="130.7" width="25.61" height="9.47" style="fill: #008ac5"/>
  </g>
  <g id="_8015_type" data-name="8015_type">
    <text id="8015_type" transform="translate(68.39 138.4)" style="font-size: 7px;fill: #fff;font-family: Arial-BoldMT, Arial;font-weight: 700;letter-spacing: 0.023995535714285716em">8<tspan x="4.06" y="0" style="letter-spacing: 0.024972098214285716em">0</tspan><tspan x="8.13" y="0" style="letter-spacing: 0.024065290178571428em">15</tspan></text>
  </g>
  <g id="_8015_balcony" data-name="8015_balcony">
    <line id="8015_balcony" x1="86.89" y1="130.89" x2="86.89" y2="140.01" style="fill: none;stroke: #989897;stroke-miterlimit: 10;stroke-width: 0.5px"/>
  </g>
  <g id="_8015_outline" data-name="8015_outline">
    <rect id="8015_outline" x="66.17" y="130.7" width="25.61" height="9.47" style="fill: none;stroke: #989897;stroke-miterlimit: 10"/>
  </g>
  <g id="_8016_fill" data-name="8016_fill">
    <rect id="8016_fill" x="5.05" y="140.34" width="25.61" height="13.15" style="fill: #e6b222"/>
  </g>
  <g id="_8016_type" data-name="8016_type">
    <text id="8016_type" transform="translate(12.14 149.72)" style="font-size: 7px;fill: #fff;font-family: Arial-BoldMT, Arial;font-weight: 700"><tspan style="letter-spacing: 0.023995535714285716em">8</tspan><tspan x="4.06" y="0" style="letter-spacing: 0.024972098214285716em">0</tspan><tspan x="8.13" y="0" style="letter-spacing: 0.024065290178571428em">1</tspan><tspan x="12.19" y="0">6</tspan></text>
  </g>
  <g id="_8016_balcony" data-name="8016_balcony">
    <line id="8016_balcony" x1="10.06" y1="140.34" x2="10.06" y2="153.49" style="fill: none;stroke: #989897;stroke-miterlimit: 10;stroke-width: 0.5px"/>
  </g>
  <g id="_8016_outline" data-name="8016_outline">
    <rect id="8016_outline" x="5.05" y="140.34" width="25.61" height="13.15" style="fill: none;stroke: #989897;stroke-miterlimit: 10"/>
  </g>
  <g id="_8017_fill" data-name="8017_fill">
    <rect id="8017_fill" x="66.17" y="140.38" width="25.61" height="12.9" style="fill: #e6b222"/>
  </g>
  <g id="_8017_type" data-name="8017_type">
    <text id="8017_type" transform="translate(68.39 149.72)" style="font-size: 7px;fill: #fff;font-family: Arial-BoldMT, Arial;font-weight: 700"><tspan style="letter-spacing: 0.023995535714285716em">8</tspan><tspan x="4.06" y="0" style="letter-spacing: 0.024972098214285716em">0</tspan><tspan x="8.13" y="0" style="letter-spacing: 0.024065290178571428em">1</tspan><tspan x="12.19" y="0">7</tspan></text>
  </g>
  <g id="_8017_balcony" data-name="8017_balcony">
    <line id="8017_balcony" x1="86.89" y1="140.54" x2="86.89" y2="153.48" style="fill: none;stroke: #989897;stroke-miterlimit: 10;stroke-width: 0.5px"/>
  </g>
  <g id="_8017_outline" data-name="8017_outline">
    <rect id="8017_outline" x="66.17" y="140.38" width="25.61" height="12.9" style="fill: none;stroke: #989897;stroke-miterlimit: 10"/>
  </g>
  <g id="_8018_fill" data-name="8018_fill">
    <rect id="8018_fill" x="5.05" y="153.58" width="25.61" height="13.15" style="fill: #e6b222"/>
  </g>
  <g id="_8018_type" data-name="8018_type">
    <text id="8018_type" transform="translate(12.39 162.78)" style="font-size: 7px;fill: #fff;font-family: Arial-BoldMT, Arial;font-weight: 700"><tspan style="letter-spacing: 0.023995535714285716em">8</tspan><tspan x="4.06" y="0" style="letter-spacing: 0.024972098214285716em">0</tspan><tspan x="8.13" y="0" style="letter-spacing: 0.024065290178571428em">1</tspan><tspan x="12.19" y="0">8</tspan></text>
  </g>
  <g id="_8018_balcony" data-name="8018_balcony">
    <line id="8018_balcony" x1="10.06" y1="153.49" x2="10.06" y2="166.64" style="fill: none;stroke: #989897;stroke-miterlimit: 10;stroke-width: 0.5px"/>
  </g>
  <g id="_8018_outline" data-name="8018_outline">
    <rect id="8018_outline" x="5.05" y="153.58" width="25.61" height="13.15" style="fill: none;stroke: #989897;stroke-miterlimit: 10"/>
  </g>
  <g id="_8019_fill" data-name="8019_fill">
    <rect id="8019_fill" x="66.17" y="153.25" width="25.61" height="13.48" style="fill: #e6b222"/>
  </g>
  <g id="_8019_type" data-name="8019_type">
    <text id="8019_type" transform="translate(68.64 162.78)" style="font-size: 7px;fill: #fff;font-family: Arial-BoldMT, Arial;font-weight: 700"><tspan style="letter-spacing: 0.023995535714285716em">8</tspan><tspan x="4.06" y="0" style="letter-spacing: 0.024972098214285716em">0</tspan><tspan x="8.13" y="0" style="letter-spacing: 0.024065290178571428em">1</tspan><tspan x="12.19" y="0">9</tspan></text>
  </g>
  <g id="_8019_balcony" data-name="8019_balcony">
    <line id="8019_balcony" x1="86.89" y1="153.48" x2="86.89" y2="166.65" style="fill: none;stroke: #989897;stroke-miterlimit: 10;stroke-width: 0.5px"/>
  </g>
  <g id="_8019_outline" data-name="8019_outline">
    <rect id="8019_outline" x="66.17" y="153.25" width="25.61" height="13.48" style="fill: none;stroke: #989897;stroke-miterlimit: 10"/>
  </g>
</svg>
