<svg id="background" xmlns="http://www.w3.org/2000/svg" viewBox="0 0 84.39 630.94" width="84.39" height="630.94">
  <title>2016_VSTAR_Deck_a</title>
  <path d="M409.88,80.25a3.63,3.63,0,0,1,2.73,1.4c18,21.62,38.85,44.83,38.94,110.34.09,60-.09,502.4-.09,502.4,0,8.09-8.17,11.82-10.35,12.79-5.29,2.36-24.27,3-31.23,3s-25.94-.65-31.23-3c-2.17-1-10.35-4.7-10.35-12.79,0,0-.18-442.43-.09-502.4.09-65.51,21-88.72,38.94-110.34A3.6,3.6,0,0,1,409.88,80.25Z" transform="translate(-367.7 -79.75)" style="fill: #f3f4f5"/>
  <polygon points="0.57 385.64 83.77 385.61 83.77 421.45 49.44 421.45 49.44 435.48 33.82 435.48 33.81 421.45 0.62 421.45 0.57 385.64" style="fill: none;stroke: #ccc;stroke-width: 0.5px"/>
  <rect x="33.37" y="404.59" width="7.97" height="6.09" style="fill: #fff"/>
  <rect x="36.19" y="404.59" width="2.25" height="1.31" style="fill: none"/>
  <rect x="41.34" y="404.59" width="7.97" height="6.09" style="fill: #fff"/>
  <rect x="44.06" y="404.59" width="2.25" height="1.31" style="fill: none"/>
  <path d="M405,456.27a6.4,6.4,0,0,0-3.8,1.38v7.73h8V457.6A8.52,8.52,0,0,0,405,456.27Z" transform="translate(-367.7 -79.75)" style="fill: #fff"/>
  <path d="M413,456.27a6.39,6.39,0,0,0-3.79,1.38v7.73h8V457.6A8.54,8.54,0,0,0,413,456.27Z" transform="translate(-367.7 -79.75)" style="fill: #fff"/>
  <rect x="36.19" y="384.28" width="2.25" height="1.31" style="fill: none"/>
  <rect x="44.06" y="384.28" width="2.25" height="1.31" style="fill: none"/>
  <polygon points="45.48 422.19 37.82 422.2 37.85 424.59 33.82 424.59 33.82 429.52 37.85 429.52 37.82 431.97 45.48 431.97 45.45 429.52 49.42 429.52 49.42 424.59 45.45 424.59 45.48 422.19" style="fill: #fff"/>
  <polygon points="58.12 235.41 27.08 235.41 27.08 210.6 21.86 210.6 21.86 200.64 58.13 200.64 58.12 235.41" style="fill: #f3f4f5"/>
  <rect x="34.08" y="229.3" width="7.97" height="6.09" style="fill: #fff"/>
  <rect x="36.99" y="229.3" width="2.34" height="1.5" style="fill: none"/>
  <rect x="42.05" y="229.3" width="7.97" height="6.09" style="fill: #fff"/>
  <rect x="44.77" y="229.3" width="2.34" height="1.5" style="fill: none"/>
  <rect x="34.32" y="183.99" width="15.6" height="16.58" style="fill: #fff;stroke: #cccbca;stroke-width: 0.35000000000000003px"/>
  <rect x="34.32" y="235.57" width="15.6" height="27.24" style="fill: #fff;stroke: #cccbca;stroke-width: 0.35000000000000003px"/>
  <polygon points="45.96 213.57 38.3 213.55 38.33 211.17 34.31 211.17 34.31 206.24 38.33 206.24 38.3 203.76 45.96 203.76 45.93 206.24 49.91 206.24 49.91 211.17 45.93 211.17 45.96 213.57" style="fill: #fff"/>
  <polyline points="0.68 157.56 21.86 157.56 21.86 210.6 0.68 210.6" style="fill: #fff;stroke: #cccbca;stroke-width: 0.35000000000000003px"/>
  <line x1="0.62" y1="421.45" x2="33.81" y2="421.45" style="fill: none;stroke: #ccc;stroke-width: 0.5px"/>
  <line x1="83.67" y1="385.64" x2="0.57" y2="385.64" style="fill: none;stroke: #ccc;stroke-width: 0.5px"/>
  <line x1="49.44" y1="421.45" x2="83.07" y2="421.45" style="fill: none;stroke: #ccc;stroke-width: 0.5px"/>
  <rect x="33.37" y="404.59" width="7.97" height="6.09" style="fill: none;stroke: #cccccb;stroke-width: 0.5px"/>
  <rect x="36.19" y="404.59" width="2.25" height="1.31" style="fill: none;stroke: #cccccb;stroke-width: 0.25px"/>
  <rect x="41.34" y="404.59" width="7.97" height="6.09" style="fill: none;stroke: #cccccb;stroke-width: 0.5px"/>
  <rect x="44.06" y="404.59" width="2.25" height="1.31" style="fill: none;stroke: #cccccb;stroke-width: 0.25px"/>
  <polyline points="49.44 421.45 49.44 460.25 33.82 460.25 33.82 421.45" style="fill: none;stroke: #cccccb;stroke-miterlimit: 10;stroke-width: 0.75px"/>
  <path d="M405,456.27a6.4,6.4,0,0,0-3.8,1.38v7.73h8V457.6A8.52,8.52,0,0,0,405,456.27Z" transform="translate(-367.7 -79.75)" style="fill: none;stroke: #cccccb;stroke-width: 0.5px"/>
  <path d="M413,456.27a6.39,6.39,0,0,0-3.79,1.38v7.73h8V457.6A8.54,8.54,0,0,0,413,456.27Z" transform="translate(-367.7 -79.75)" style="fill: none;stroke: #cccccb;stroke-width: 0.5px"/>
  <rect x="36.19" y="384.28" width="2.25" height="1.31" style="fill: none;stroke: #cccccb;stroke-width: 0.25px"/>
  <rect x="44.06" y="384.28" width="2.25" height="1.31" style="fill: none;stroke: #cccccb;stroke-width: 0.25px"/>
  <line x1="33.82" y1="435.4" x2="49.42" y2="435.4" style="fill: none;stroke: #cccccb;stroke-miterlimit: 10;stroke-width: 0.75px"/>
  <g>
    <polyline points="37.82 431.97 37.82 422.2 45.48 422.19 45.48 431.97" style="fill: none;stroke: #cccccb;stroke-width: 0.5px"/>
    <line x1="33.83" y1="428.29" x2="49.43" y2="428.29" style="fill: none;stroke: #cccccb;stroke-width: 0.25px"/>
    <line x1="33.83" y1="427.04" x2="49.43" y2="427.04" style="fill: none;stroke: #cccccb;stroke-width: 0.25px"/>
    <line x1="33.83" y1="425.83" x2="49.4" y2="425.83" style="fill: none;stroke: #cccccb;stroke-width: 0.25px"/>
    <line x1="37.83" y1="430.71" x2="45.47" y2="430.71" style="fill: none;stroke: #cccccb;stroke-width: 0.25px"/>
    <line x1="37.83" y1="429.5" x2="45.47" y2="429.5" style="fill: none;stroke: #cccccb;stroke-width: 0.25px"/>
    <line x1="37.81" y1="424.59" x2="45.48" y2="424.59" style="fill: none;stroke: #cccccb;stroke-width: 0.25px"/>
    <line x1="37.81" y1="423.38" x2="45.47" y2="423.38" style="fill: none;stroke: #cccccb;stroke-width: 0.25px"/>
    <polyline points="37.8 424.59 33.82 424.59 33.82 429.52 37.8 429.52" style="fill: none;stroke: #cccccb;stroke-width: 0.5px"/>
    <polyline points="45.45 424.59 49.42 424.59 49.42 429.52 45.45 429.52" style="fill: none;stroke: #cccccb;stroke-width: 0.5px"/>
  </g>
  <polyline points="34.3 213.71 34.3 183.9 49.92 183.9 49.92 213.71" style="fill: none;stroke: #cccccb;stroke-width: 0.5px"/>
  <polyline points="34.15 235.31 34.15 262.79 50.02 262.79 50.02 235.31" style="fill: none;stroke: #ccc;stroke-width: 0.5px"/>
  <rect x="34.08" y="229.3" width="7.97" height="6.09" style="fill: none;stroke: #cccccb;stroke-width: 0.75px"/>
  <rect x="36.99" y="229.29" width="2.34" height="1.51" style="fill: none;stroke: #cccccb;stroke-width: 0.25px"/>
  <rect x="42.05" y="229.3" width="7.97" height="6.09" style="fill: none;stroke: #cccccb;stroke-width: 0.75px"/>
  <rect x="44.77" y="229.29" width="2.34" height="1.51" style="fill: none;stroke: #cccccb;stroke-width: 0.25px"/>
  <g>
    <polyline points="38.3 203.78 38.3 213.55 45.96 213.57 45.96 203.78" style="fill: none;stroke: #cccccb;stroke-width: 0.5px"/>
    <line x1="34.32" y1="207.47" x2="49.92" y2="207.47" style="fill: none;stroke: #cccccb;stroke-width: 0.5px"/>
    <line x1="34.32" y1="208.71" x2="49.92" y2="208.71" style="fill: none;stroke: #cccccb;stroke-width: 0.5px"/>
    <line x1="34.31" y1="209.92" x2="49.89" y2="209.92" style="fill: none;stroke: #cccccb;stroke-width: 0.5px"/>
    <line x1="38.31" y1="205.04" x2="45.95" y2="205.04" style="fill: none;stroke: #cccccb;stroke-width: 0.5px"/>
    <line x1="38.31" y1="206.25" x2="45.95" y2="206.25" style="fill: none;stroke: #cccccb;stroke-width: 0.5px"/>
    <line x1="38.3" y1="211.17" x2="45.97" y2="211.17" style="fill: none;stroke: #cccccb;stroke-width: 0.5px"/>
    <line x1="38.3" y1="212.38" x2="45.95" y2="212.38" style="fill: none;stroke: #cccccb;stroke-width: 0.5px"/>
    <polyline points="38.28 211.17 34.31 211.17 34.31 206.24 38.28 206.24" style="fill: none;stroke: #cccccb;stroke-width: 0.5px"/>
    <polyline points="45.93 211.17 49.91 211.17 49.91 206.24 45.93 206.24" style="fill: none;stroke: #cccccb;stroke-width: 0.5px"/>
  </g>
  <polyline points="21.86 200.64 21.86 210.6 27.08 210.6 27.08 235.41 58.12 235.41 58.12 200.64 21.86 200.64" style="fill: none;stroke: #cccccb;stroke-width: 0.75px"/>
  <path d="M409.88,80.25a3.63,3.63,0,0,1,2.73,1.4c18,21.62,38.85,44.83,38.94,110.34.09,60-.09,502.4-.09,502.4,0,8.09-8.17,11.82-10.35,12.79-5.29,2.36-24.27,3-31.23,3s-25.94-.65-31.23-3c-2.17-1-10.35-4.7-10.35-12.79,0,0-.18-442.43-.09-502.4.09-65.51,21-88.72,38.94-110.34A3.6,3.6,0,0,1,409.88,80.25Z" transform="translate(-367.7 -79.75)" style="fill: none;stroke: #989897"/>
  <polyline points="0.68 157.56 21.86 157.56 21.86 210.6 0.68 210.6" style="fill: none;stroke: #cccccb;stroke-width: 0.5px"/>
  <text transform="translate(43.32 228.4) rotate(-90) scale(1 1.16)" style="font-size: 5.498370170593262px;fill: #cccccb;font-family: Arial-BoldMT, Arial;font-weight: 700">Lifts</text>
  <text transform="translate(43.48 399.6) rotate(-90) scale(1 1.16)" style="font-size: 5.498370170593262px;fill: #cccccb;font-family: Arial-BoldMT, Arial;font-weight: 700">Lifts</text>
  <text transform="translate(10.24 193.76) rotate(-90)" style="font-size: 8px;fill: #cccccb;font-family: Arial-BoldMT, Arial;font-weight: 700">Medical<tspan x="2" y="8.5">Center</tspan></text>
  <g>
    <rect x="6" y="196.64" width="10.5" height="10.5" rx="1.75" ry="1.75" style="fill: #fff;stroke: #cccccb;stroke-width: 0.5px"/>
    <g>
      <line x1="14.94" y1="201.84" x2="7.35" y2="201.84" style="fill: none;stroke: #cccccb;stroke-width: 2px"/>
      <line x1="11.15" y1="205.63" x2="11.15" y2="198.05" style="fill: none;stroke: #cccccb;stroke-width: 2px"/>
    </g>
  </g>
</svg>
