<svg id="CTA" xmlns="http://www.w3.org/2000/svg" width="57" height="25" viewBox="0 0 57 25">
  <defs>
    <style>
      .cls-1 {
        fill: #eb3225;
      }

      .cls-2 {
        fill: #fff;
        fill-rule: evenodd;
      }
    </style>
  </defs>
  <rect class="cls-1" width="57" height="25"/>
  <path id="explore" class="cls-2" d="M24.835,101.755v-1.279H22.162V97.967h1.927V96.688H22.162v-2.2h2.5V93.208h-4v8.547h4.167Zm0.987,0h1.469l1.036-3.113h0.024l1.012,3.113h1.469L29.146,97.28l1.505-4.072H29.182l-0.831,2.711H28.327l-0.915-2.711H25.942l1.59,4.072Zm7.626-7.339h0.578c0.975,0,1.276.3,1.276,1.314s-0.3,1.314-1.276,1.314H33.448V94.416Zm0,7.339v-3.5H34.1c1.843,0,2.7-.7,2.7-2.521s-0.855-2.521-2.7-2.521H31.955v8.547h1.493Zm8.419,0v-1.279H39.518V93.208H38.025v8.547h3.842Zm1.086-2.072a2.29,2.29,0,0,0,4.576,0v-4.4a2.29,2.29,0,0,0-4.576,0v4.4Zm1.493-4.368c0-.639.193-0.947,0.795-0.947s0.795,0.308.795,0.947v4.332c0,0.639-.193.947-0.795,0.947s-0.795-.308-0.795-0.947V95.315Zm5.988-.9h0.53c0.807,0,1.108.3,1.108,1.314s-0.3,1.314-1.108,1.314h-0.53V94.416Zm0,3.835a7.319,7.319,0,0,0,.771-0.035l1.06,3.54h1.517l-1.264-3.871a2.072,2.072,0,0,0,1.048-2.154c0-1.823-.855-2.521-2.529-2.521h-2.1v8.547h1.493v-3.5Zm8.78,3.5v-1.279H56.54V97.967h1.927V96.688H56.54v-2.2h2.5V93.208h-4v8.547h4.167Z" transform="translate(-12 -85)"/>
</svg>
