<svg xmlns="http://www.w3.org/2000/svg" width="108" height="46" viewBox="0 0 654.44 279.93">
  <defs>
    <style>
      .cls-1{fill:#ed1c2e;}
      .cls-2{fill:#fff;}
    </style>
  </defs>
  <polygon class="cls-1" points="93.38 0.03 0 161.76 0 279.93 118.27 279.93 279.88 0 93.38 0.03"/><path class="cls-2" d="M123.28,182.5V131.33h24.52V139H132.07v13.18h11.77v7.66H132.07V182.5h-8.79Z" transform="translate(0 -80.07)"/><path class="cls-2" d="M154.11,182.5V131.33h8.79V182.5h-8.79Z" transform="translate(0 -80.07)"/><path class="cls-2" d="M170.91,182.5V131.33h8.15l10.7,29.27h0.14V131.33h7.94V182.5h-7.66l-11.2-32h-0.14v32h-7.94Z" transform="translate(0 -80.07)"/><path class="cls-2" d="M205.64,131.33h13c9.07,0,13.89,5,13.89,15.45V167c0,10.49-4.82,15.45-13.89,15.45h-13V131.33Zm8.79,43.94h3c4.68,0,6.31-1.77,6.31-7.16v-22.4c0-5.39-1.63-7.16-6.31-7.16h-3v36.71Z" transform="translate(0 -80.07)"/><path class="cls-2" d="M269.85,182.5h-8.79V161.24l-10.63-29.91h8.93l6.17,19.49h0.14l5.88-19.49h8.93l-10.63,29.91V182.5Z" transform="translate(0 -80.07)"/><path class="cls-2" d="M282.53,143.73c0-7.23,4.25-13.11,13.47-13.11s13.47,5.88,13.47,13.11V170.1c0,7.23-4.25,13.11-13.47,13.11s-13.47-5.88-13.47-13.11V143.73Zm8.79,26.15c0,3.83,1.13,5.67,4.68,5.67s4.68-1.84,4.68-5.67V143.94c0-3.83-1.13-5.67-4.68-5.67s-4.68,1.84-4.68,5.67v25.94Z" transform="translate(0 -80.07)"/><path class="cls-2" d="M316.48,131.33h8.79V170c0,3.76,1.49,5.6,4.68,5.6s4.68-1.84,4.68-5.6V131.33h8.79V169.6c0,8.79-5.1,13.61-13.47,13.61s-13.47-4.82-13.47-13.61V131.33Z" transform="translate(0 -80.07)"/><path class="cls-2" d="M360,182.5h-8.79V131.33h12.33c9.85,0,14.88,4.18,14.88,15.1,0,8.22-3.19,11.55-6.17,12.9l7.44,23.18h-8.93l-6.24-21.19a42.39,42.39,0,0,1-4.54.21v21Zm0-28.21h3.12c4.75,0,6.52-1.77,6.52-7.87s-1.77-7.87-6.52-7.87H360v15.73Z" transform="translate(0 -80.07)"/><path class="cls-2" d="M401.67,143.73c0-7.23,4.25-13.11,13.47-13.11s13.47,5.88,13.47,13.11V170.1c0,7.23-4.25,13.11-13.47,13.11s-13.47-5.88-13.47-13.11V143.73Zm8.79,26.15c0,3.83,1.13,5.67,4.68,5.67s4.68-1.84,4.68-5.67V143.94c0-3.83-1.13-5.67-4.68-5.67s-4.68,1.84-4.68,5.67v25.94Z" transform="translate(0 -80.07)"/><path class="cls-2" d="M451.85,131.33h7.23l6,32.6h0.14l4.89-32.6h8.22l-9,51.17h-7.37l-6.38-33.81h-0.14l-6,33.81h-7.37l-9.71-51.17h8.22l5.39,32.6h0.14Z" transform="translate(0 -80.07)"/><path class="cls-2" d="M483.65,182.5V131.33h8.15l10.7,29.27h0.14V131.33h7.94V182.5h-7.65l-11.2-32h-0.14v32h-7.94Z" transform="translate(0 -80.07)"/><path class="cls-2" d="M533.69,182.5V131.33h8.79v43.52H556.3v7.65H533.69Z" transform="translate(0 -80.07)"/><path class="cls-2" d="M568.47,182.5H560l9.43-51.17H580.3l9.43,51.17h-8.51l-1.56-11.34H570Zm2.83-19h7.09l-3.47-22h-0.14Z" transform="translate(0 -80.07)"/><path class="cls-2" d="M594.84,182.5V131.33H603l10.7,29.27h0.14V131.33h7.94V182.5h-7.65l-11.2-32h-0.14v32h-7.94Z" transform="translate(0 -80.07)"/><path class="cls-2" d="M629.92,182.5V131.33h23.53V139H638.71v13.18H650v7.66H638.71v15h15.73v7.65H629.92Z" transform="translate(0 -80.07)"/>
</svg>