<svg xmlns="http://www.w3.org/2000/svg" width="40" height="59" viewBox="0 0 159.84 204.7">
  <defs>
    <style>
      .cls-1{fill:#ed1c24;}
      .cls-2{fill:#fff;}
    </style>
  </defs>
  <polyline class="cls-1" points="79.82 92.33 53.21 46.27 79.82 0 106.62 46.27 79.82 92.33"/><polyline class="cls-1" points="106.62 138.41 79.82 92.33 133.23 92.33 159.84 138.41 106.62 138.41"/><polyline class="cls-1" points="53.21 138.41 0 138.41 26.61 92.33 79.82 92.33 53.21 138.41"/><path class="cls-2" d="M26.54,173.29V151.74H22.7l-4.47,10.38-4.47-10.38H9.91v21.55h4V159.47H14l3.85,8.94,0.43,0.89,0.42-.89,3.85-8.94h0v13.82h3.93Zm8.28-21.55h-4v21.55h4V151.74Zm15.07,0H37.11v3.45h4.41v18.09h4V155.19h4.4v-3.45h0Zm32.32,15.78V151.74H78.6v14.82c0,2.5-.9,3.63-3.41,3.63s-3.41-1.13-3.41-3.63V151.74H68.16v15.78c0,3.21,2.18,6.13,7,6.13s7-2.88,7-6.13m17.72-.5c0-2.62-1.22-4.73-4.1-5.27v-0.06c1.92-.2,3.14-2.29,3.14-4,0-3.85-1.92-5.77-4.69-6H85.63V173.3h8a6.07,6.07,0,0,0,6.31-5.81q0-.24,0-0.47m-8.21,3H89.61V155h2.18c2,0,3.24,1,3.24,2.68s-0.84,2.68-3.8,2.68v3.31c3.39,0,4.7.49,4.75,3.15S95,170,91.75,170m32.49-2.88c0-8.22-10.16-5.18-10.16-9.67a2.61,2.61,0,0,1,2.43-2.77h0.38c2,0,2.93,1.46,3.17,3.1h3.8c-0.26-3.69-2.4-6.37-6.8-6.37-3.85,0-6.8,2.3-6.8,5.84,0,8.33,10.16,5.06,10.16,10.12a3.08,3.08,0,0,1-3.11,3h-0.19c-2.54,0-3.27-1.79-3.5-3.78h-3.85c0,4,2.58,7.06,7.22,7.06,4.38,0,7.22-2.59,7.22-6.55m-65.6,3.28c-2.54,0-3.27-1.79-3.5-3.78H51.28c0,4,2.58,7.06,7.23,7.06,4.38,0,7.23-2.59,7.23-6.55,0-8.22-10.16-5.18-10.16-9.67A2.61,2.61,0,0,1,58,154.74h0.38c2,0,2.93,1.46,3.16,3.1h3.8c-0.26-3.69-2.4-6.37-6.8-6.37-3.85,0-6.8,2.3-6.8,5.84,0,8.33,10.16,5.06,10.16,10.12a3.08,3.08,0,0,1-3.11,3H58.61m83.49,2.88v-21.6h-4v8.65h-7.69v-8.65h-4v21.55h4v-9.61h7.69v9.61h4v0Zm7.84,0V151.79h-4v21.55h4v0Zm-47.25-10.8v10.8h4V151.7h-4v10.84Zm-56,41.94V182.84H42.9l-4.47,10.38L34,182.84H30.12v21.55h4V190.57H34.2l3.85,8.94,0.43,0.88,0.42-.88,3.85-8.94h0.06v13.82h4Zm28.65-.08V186.22h4.68v-3.5H66.71v3.45h4.68v18.1h4Zm47.51-3c-2.54,0-3.27-1.79-3.5-3.78h-3.85c0,4,2.58,7.06,7.23,7.06,4.38,0,7.22-2.59,7.22-6.55,0-8.21-10.16-5.18-10.16-9.67a2.61,2.61,0,0,1,2.74-2.87c2,0,2.93,1.46,3.16,3.1h3.8c-0.27-3.69-2.41-6.37-6.8-6.37-3.85,0-6.8,2.29-6.8,5.84,0,8.33,10.16,5.07,10.16,10.12a3.08,3.08,0,0,1-3.11,3h-0.19m-65.14,3.29c3.62,0,8.41-2.65,8.41-11.18,0-8.18-4.44-11.21-8.41-11.21-4.16,0-8.41,3.58-8.41,11,0,8.18,4.29,11.41,8.41,11.41m-0.06-18.88c2.11,0,4.45,2.08,4.45,7.69,0,5.83-2.53,7.69-4.45,7.69-2.18,0-4.45-2.3-4.45-7.88,0-5.06,2.25-7.5,4.45-7.5m31.32,18.88c3.62,0,8.41-2.65,8.41-11.18,0-8.18-4.44-11.21-8.41-11.21-4.16,0-8.41,3.58-8.41,11,0,8.18,4.29,11.41,8.41,11.41m-0.06-18.88c2.11,0,4.45,2.08,4.45,7.69,0,5.83-2.53,7.69-4.45,7.69-2.18,0-4.45-2.3-4.45-7.88,0-5.06,2.25-7.5,4.45-7.5M104.75,193L111,204.31h4.58L109.92,195c1.85-.8,3.49-1.86,3.59-5.49,0.1-4-1.5-6.67-6.43-6.6H99.52v21.38h3.74V186.24h2.49c2.41,0,3.59,1.1,3.57,3.39,0,3.6-4.68,3.34-4.68,3.34"/>
</svg>