<svg id="Layer_1" data-name="Layer 1" xmlns="http://www.w3.org/2000/svg" viewBox="0 0 155.9 121.1"><defs><style>.cls-1{fill:#fff;}</style></defs><title>money</title><path class="cls-1" d="M-351.8,390.4v28.9a1.28,1.28,0,0,1-.4,1c-2.9,2.4-5.7,4.8-8.5,7.1a1.08,1.08,0,0,1-.7.3c-4.4,0-8.8.1-13.2-.1a14.8,14.8,0,0,1-13.5-12.8,14.66,14.66,0,0,1,11.5-16.4,15,15,0,0,1,2.9-.3h12a2.1,2.1,0,0,0,1.1-.4c2.8-2.2,5.5-4.5,8.3-6.8A0.82,0.82,0,0,1-351.8,390.4Zm-29,22.3a7.47,7.47,0,0,0,7.4,7.5,7.58,7.58,0,0,0,7.5-7.3,7.34,7.34,0,0,0-7.4-7.5A7.32,7.32,0,0,0-380.8,412.7Z" transform="translate(507.5 -343.4)"/><path class="cls-1" d="M-351.8,364.5V351.9a7.31,7.31,0,0,0-.8-3.3,11,11,0,0,0-3.3-3.8,6.56,6.56,0,0,0-4.1-1.4H-492.7c-2.4,0-4.9.1-7.3,0.3-3.9.4-5.8,2.2-6.8,6a30.2,30.2,0,0,0-.7,7.9V458.3a5.87,5.87,0,0,0,3.8,5.7,8.59,8.59,0,0,0,3.2.5h134.4a6.14,6.14,0,0,0,5.8-6.1V432.3c-0.6,0-1,.1-1.4.1h-11.9a24.52,24.52,0,0,1-2.7-.2,19.83,19.83,0,0,1-16.3-24.4,19.74,19.74,0,0,1,19.3-15h11.9c0.9,0,1-.1,1-1V359.4a5.77,5.77,0,0,0-3.3-5.4,7.11,7.11,0,0,0-3.2-.7H-491.6c-1.7,0-3.4,0-5.1-.1a2.3,2.3,0,0,1-2.1-2.6,2.32,2.32,0,0,1,2.4-2.2c4.1,0.1,8.1,0,12.2,0h122.1a5.54,5.54,0,0,1,1.8.2,5,5,0,0,1,3.8,5.2v34.5c1.5-.7,2.9-1.5,4.3-2.1a1,1,0,0,0,.6-1C-351.8,378.3-351.8,371.4-351.8,364.5Z" transform="translate(507.5 -343.4)"/><path class="cls-1" d="M-356.6,456.1V428.6a0.89,0.89,0,0,1,.6-1c1.4-.7,2.8-1.4,4.3-2.1v25a5.82,5.82,0,0,1-4.1,5.6A1.1,1.1,0,0,0-356.6,456.1Z" transform="translate(507.5 -343.4)"/></svg>