<svg id="Layer_1" data-name="Layer 1" xmlns="http://www.w3.org/2000/svg" viewBox="0 0 155.9 161.1"><defs><style>.cls-1{fill:#fff;}</style></defs><title>money1</title><path class="cls-1" d="M-361.4,447.4v26.1a6.13,6.13,0,0,1-5.8,6.1H-501.6a11.27,11.27,0,0,1-3.2-.5,5.74,5.74,0,0,1-3.8-5.7V372.7a34.68,34.68,0,0,1,.7-7.9c1-3.8,2.9-5.6,6.8-6a59.42,59.42,0,0,1,7.3-.3H-478a2,2,0,0,1,.7.1l-3,2.1c-0.8.6-1.7,1.2-2.5,1.8a4.11,4.11,0,0,1-2.6.9c-4.1-.1-8.1,0-12.2,0a2.4,2.4,0,0,0-2.4,2.2,2.37,2.37,0,0,0,2.1,2.6c1.7,0.1,3.4.1,5.1,0.1h124.7a7.11,7.11,0,0,1,3.2.7,5.87,5.87,0,0,1,3.3,5.4v32.4c0,0.9-.1,1-1,1h-11.9a19.82,19.82,0,0,0-19.3,15,19.87,19.87,0,0,0,16.3,24.4,24.52,24.52,0,0,0,2.7.2h11.9A3.78,3.78,0,0,0-361.4,447.4Z" transform="translate(508.6 -318.5)"/><path class="cls-1" d="M-413.9,318.5c6.3,8.4,12.5,16.7,18.8,25l-0.6.3q-28.5,10.95-57.1,21.9a1.88,1.88,0,0,1-.8.2h-26.1C-457.6,350-435.7,334.3-413.9,318.5Z" transform="translate(508.6 -318.5)"/><path class="cls-1" d="M-352.8,405.4v28.9a1.28,1.28,0,0,1-.4,1c-2.9,2.4-5.7,4.8-8.5,7.1a1.08,1.08,0,0,1-.7.3c-4.4,0-8.8.1-13.2-.1a14.8,14.8,0,0,1-13.5-12.8,14.66,14.66,0,0,1,11.5-16.4,15,15,0,0,1,2.9-.3h12a2.1,2.1,0,0,0,1.1-.4c2.8-2.2,5.5-4.5,8.3-6.8A0.82,0.82,0,0,1-352.8,405.4Zm-29,22.3a7.47,7.47,0,0,0,7.4,7.5,7.58,7.58,0,0,0,7.5-7.3,7.34,7.34,0,0,0-7.4-7.5A7.32,7.32,0,0,0-381.8,427.7Z" transform="translate(508.6 -318.5)"/><path class="cls-1" d="M-440.8,365.8q27.9-10.05,55.9-20.2c2.5,6.8,5,13.5,7.5,20.2q-31.8.15-63.4,0h0Z" transform="translate(508.6 -318.5)"/><path class="cls-1" d="M-357.6,403.3V368.8a5,5,0,0,0-3.8-5.2,11,11,0,0,0-1.8-.2h-9.5a0.84,0.84,0,0,1-1-.7c-0.5-1.4-1-2.8-1.6-4.2h14.4a6.19,6.19,0,0,1,4.1,1.4,11,11,0,0,1,3.3,3.8,6.22,6.22,0,0,1,.8,3.3v33.3a1,1,0,0,1-.6,1A32.63,32.63,0,0,0-357.6,403.3Z" transform="translate(508.6 -318.5)"/><path class="cls-1" d="M-357.6,471.1V443.6a0.89,0.89,0,0,1,.6-1c1.4-.7,2.8-1.4,4.3-2.1v25a5.82,5.82,0,0,1-4.1,5.6A1.1,1.1,0,0,0-357.6,471.1Z" transform="translate(508.6 -318.5)"/></svg>