<svg id="Layer_1" data-name="Layer 1" xmlns="http://www.w3.org/2000/svg" xmlns:xlink="http://www.w3.org/1999/xlink" viewBox="0 0 579.4 580.6"><defs><style>.cls-1{fill:url(#linear-gradient);}.cls-2{fill:none;}.cls-3{fill:#fff;}</style><linearGradient id="linear-gradient" x1="50.49" y1="617.14" x2="245.62" y2="416.64" gradientTransform="matrix(2.13, 0, 0, -2.13, -71.86, 1390.31)" gradientUnits="userSpaceOnUse"><stop offset="0" stop-color="#a2cc47"/><stop offset="1" stop-color="#90bb3e"/></linearGradient></defs><title>mpg1</title><path id="_Path_" data-name="&lt;Path&gt;" class="cls-1" d="M453.2,647.8l-293.9.4c-78.2.1-142.5-64-142.6-142.2L16.3,210.6C16.2,132.2,80.4,68.1,158.6,68l294.1-.4c78.4-.1,142.5,63.8,142.6,142.2l0.4,295.4C595.5,583.6,531.6,647.7,453.2,647.8Z" transform="translate(-16.3 -67.6)"/><path class="cls-2" d="M374.8,181.8c-48.2-.1-96.7-0.1-144.9.2-12.1,0-21.2,9.6-21.2,21.7,0,28.3.1,56.5,0.1,84.8a21.42,21.42,0,0,0,1.5,8.3c3.2,8.5,11,13.4,21.2,13.4l71-.1c23.6,0,47.4-.1,71-0.1,13.4,0,22.7-8.7,22.9-21.7,0.2-28.3.1-56.5-.1-84.8C396.1,191.2,386.9,181.8,374.8,181.8Z" transform="translate(-16.3 -67.6)"/><path class="cls-3" d="M499.1,464.9c-2.1-8.7-5.5-17-8.9-25.3-9.3-22.1-19-44-24.8-67.4-4.5-17.4-7.9-35.1-7.5-53.1,0.6-22.7,1-45.5,1.4-68.4,0.2-8.7-2.8-12.5-10.8-15.3-13.2-4.2-26.3-8.7-39.5-12.9-1.9-.6-2.6-1.5-2.6-3.4V192.3c0-13.8-10.4-24-24.2-24q-79.95.15-159.8,0.4a33.89,33.89,0,0,0-4.5.2c-12.3,2.1-20,11.9-20,25.1q0.15,81.3.4,162.6c0.1,54.6.3,109,.4,163.6,0,15.3,10.2,25.3,25.5,25.3,52.9-.1,105.6-0.3,158.5-0.4,14.4,0,24.4-10.2,24.4-24.4,0-34.4-.3-68.8-0.3-103.3v-4.2c2.6,0.4,4.7.6,6.6,1.1,10.8,2.1,14.4,6.6,14.4,17.6,0,9.8-.2,19.3-0.4,29.1-0.2,10.8,1.1,21.2,7.4,30.6a37.13,37.13,0,0,0,45,13.1C495.5,498.1,503.3,482.8,499.1,464.9ZM396.3,288.3c0,13-9.3,21.7-22.9,21.7-23.6,0-47.4.1-71,.1l-71,.1c-10.2,0-18.1-4.9-21.2-13.4a21.42,21.42,0,0,1-1.5-8.3c0-28.3-.1-56.5-0.1-84.8,0-12.1,9.1-21.7,21.2-21.7,48.2-.1,96.7-0.3,144.9-0.2,12.1,0,21.2,9.3,21.2,21.7C396.4,231.8,396.4,260.1,396.3,288.3Zm63.5,203.1c-9.8-2.6-14.9-9.8-15.9-19.3-0.8-8.1-.4-16.4-0.6-24.4,0-6.8.6-13.8,0-20.6-1.3-14.9-9.3-24-24-27.6a101.86,101.86,0,0,0-12.5-2.1c-0.1-52.1-.1-104.3-0.2-157,10,3.2,19.8,6.2,30,9.1-2.1,5.1-4,10-6.4,14.7a34.22,34.22,0,0,0-3.6,17.2c0.6,10.8.6,21.5,1.1,32.3a29.58,29.58,0,0,0,1.3,7.7c1.5,5.9,4.2,8.3,10.4,8.5,1.7,0,2.8.4,2.8,2.3,2.3,31.2,11.2,61,23,89.7,5.1,12.8,10.6,25.3,15.6,38a66.42,66.42,0,0,1,3,10.8C486.3,488.2,471.2,494.3,459.8,491.4Z" transform="translate(-16.3 -67.6)"/></svg>