<svg id="Layer_1" data-name="Layer 1" xmlns="http://www.w3.org/2000/svg" viewBox="0 0 91.9 82.9"><defs><style>.cls-1{fill:#fff;}</style></defs><title>mpg2</title><path class="cls-1" d="M278.9,269.5H254.7V259.1L278,208.3h13.4l0.1,50.8h7.2v10.4h-7.2v19.6H279V269.5h-0.1Zm0.4-10.6V227.5h-0.4L265.3,259Z" transform="translate(-254.7 -206.6)"/><path class="cls-1" d="M320.3,265.5v5.3c0,5.1,2.1,7.9,6.2,7.9s6.6-3,6.6-9.3v-6.2c0-8.7-3.2-11.5-11.9-11.5V240.9c8.3,0,11.3-2.6,11.3-12.3,0-7.7-1.5-10.8-5.3-10.8-4,0-6.2,1.7-6.2,8.3v3.2H308.5v-4c0-10.8,6.8-18.7,18.7-18.7s18.1,10,18.1,20.6c0,9.3-1.5,14.9-8.7,18.3,8.3,4.2,10,8.9,10,20.2,0,16.1-6.6,23.8-20.2,23.8-11.5,0-18.3-5.7-18.3-19.8v-4.5h12.5v0.4l-0.3-.1h0Z" transform="translate(-254.7 -206.6)"/></svg>