<svg id="Layer_1" data-name="Layer 1" xmlns="http://www.w3.org/2000/svg" viewBox="0 0 156.04 156.34"><defs><style>.cls-1{fill:#fff;}</style></defs><title>wrench</title><path class="cls-1" d="M96.19,70.06A28.39,28.39,0,0,1,124,92.62a27.45,27.45,0,0,1-.87,14.37c-0.14.42-.28,0.83-0.39,1.25a1.89,1.89,0,0,0,.47,1.87l0.67,0.7q29.65,29.65,59.28,59.31a3.11,3.11,0,0,0,3.6.86A28.19,28.19,0,0,1,223,205.19a2.09,2.09,0,0,1-3.66,1c-3.08-3.05-6.12-6.13-9.2-9.18-3.52-3.49-8.11-4.43-12.31-2.55a10.68,10.68,0,0,0-3.26,17.25c3,3,6,6,9.06,9.07a9.3,9.3,0,0,1,.72.77,2.09,2.09,0,0,1-1.1,3.46,28.57,28.57,0,0,1-31.88-12.52,26.42,26.42,0,0,1-2.81-23.07,3.93,3.93,0,0,0-1.12-4.62Q137.94,155.47,108.6,126a2.84,2.84,0,0,0-3.3-.76,28.19,28.19,0,0,1-36.82-21.59,28.48,28.48,0,0,1,.47-12.61,2.1,2.1,0,0,1,3.73-1c3,3.16,6.19,6.23,9.3,9.33A10.81,10.81,0,0,0,100.35,91a11,11,0,0,0-3.53-6.87c-3-3.07-6-6.2-8.93-9.31-1.47-1.53-1-3.4,1.1-3.82,2.37-.48,4.77-0.78,7.16-1.17Z" transform="translate(-67.98 -69.83)"/><path class="cls-1" d="M68.24,210.05a16.84,16.84,0,0,1,5.11-12.28l44.89-44.88c1.62-1.62,3.34-1.61,5,0q8.95,8.93,17.88,17.88c1.61,1.61,1.6,3.3,0,4.89q-22.94,22.94-45.9,45.85c-4.5,4.46-10.05,5.64-16.05,3.75s-9.47-6.09-10.71-12.2a9.71,9.71,0,0,1-.18-1.39C68.22,211.16,68.24,210.61,68.24,210.05Z" transform="translate(-67.98 -69.83)"/><path class="cls-1" d="M224,78.92a9.82,9.82,0,0,1-.76,1.91c-2.3,3.49-4.63,7-7,10.4a5.25,5.25,0,0,1-1.79,1.5c-2.36,1.28-4.78,2.46-7.15,3.73a9.17,9.17,0,0,0-2.1,1.54q-19.23,19.2-38.42,38.44c-1,1-2.09,1.64-3.52,1.14a3.72,3.72,0,0,1-1.31-.83c-1.54-1.49-3-3-4.54-4.52a3,3,0,0,1-.17-4.26c0.22-.27.47-0.52,0.72-0.76q19-19,38-38.08a12.76,12.76,0,0,0,2-2.82c1.18-2.12,2.18-4.34,3.38-6.44a6.6,6.6,0,0,1,2-2.16c3.25-2.18,6.58-4.25,9.88-6.37a3.66,3.66,0,0,1,5.19.56c1.43,1.43,2.85,2.86,4.29,4.28A4.4,4.4,0,0,1,224,78.92Z" transform="translate(-67.98 -69.83)"/></svg>